<?xml version="1.0" encoding="utf-8"?>
<!-- Generator: Adobe Illustrator 26.2.1, SVG Export Plug-In . SVG Version: 6.00 Build 0)  -->
<svg version="1.1" id="Camada_1" xmlns="http://www.w3.org/2000/svg" xmlns:xlink="http://www.w3.org/1999/xlink" x="0px" y="0px"
	 viewBox="0 0 60 60" style="enable-background:new 0 0 60 60;" xml:space="preserve">
<style type="text/css">
	.st0{fill-rule:evenodd;clip-rule:evenodd;fill:#F6CD00;}
	.st1{fill-rule:evenodd;clip-rule:evenodd;fill:#866AFB;}
	.st2{fill-rule:evenodd;clip-rule:evenodd;fill:#06CBAD;}
	.st3{fill-rule:evenodd;clip-rule:evenodd;fill:#053749;}
	.st4{fill-rule:evenodd;clip-rule:evenodd;fill:#05A300;}
	.st5{fill-rule:evenodd;clip-rule:evenodd;fill:#FE466C;}
	.st6{fill-rule:evenodd;clip-rule:evenodd;fill:#F53800;}
	.st7{fill-rule:evenodd;clip-rule:evenodd;fill:#851D6A;}
</style>
<g>
	<path class="st0" d="M53.6,24.2c0.5,2,0.8,4.1,0.8,6.2c0,5.7-2,11-5.3,15.1l0,0c2,0,3.7,1.7,3.7,3.7c0,2-1.7,3.7-3.7,3.7
		c-2,0-3.7-1.7-3.7-3.7l0,0c-4.1,3.3-9.4,5.3-15.1,5.3c-2.2,0-4.3-0.3-6.2-0.8l2.3-8.7c1.3,0.3,2.6,0.5,3.9,0.5
		c4.2,0,8-1.7,10.7-4.4c2.7-2.7,4.4-6.5,4.4-10.7c0-1.4-0.2-2.7-0.5-3.9L53.6,24.2z"/>
	<path class="st1" d="M30.3,6.3c2.2,0,4.3,0.3,6.2,0.8l-2.3,8.7c-1.3-0.3-2.6-0.5-3.9-0.5c-4.2,0-8,1.7-10.7,4.4
		c-2.7,2.7-4.4,6.5-4.4,10.7c0,1.4,0.2,2.7,0.5,3.9L7,36.7c-0.5-2-0.8-4.1-0.8-6.2c0-5.7,2-11,5.3-15.1l0,0c-2,0-3.7-1.7-3.7-3.7
		c0-2,1.7-3.7,3.7-3.7c2,0,3.7,1.7,3.7,3.7l0,0C19.3,8.3,24.5,6.3,30.3,6.3z"/>
	<path class="st2" d="M42,14.6c-3.3-2.4-7.4-3.9-11.8-3.9c-1.8,0-3.5,0.2-5.1,0.7l-2.3-8.7c2.4-0.6,4.9-1,7.4-1
		c7.9,0,15.1,3.2,20.3,8.4c5.2,5.2,8.4,12.4,8.4,20.3c0,2.6-0.3,5.1-1,7.4l-8.7-2.3c0.4-1.6,0.7-3.3,0.7-5.1c0-4.4-1.4-8.5-3.9-11.8
		c-0.2,1.8-1.8,3.2-3.7,3.2c-2,0-3.7-1.7-3.7-3.7C38.8,16.3,40.2,14.8,42,14.6z"/>
	<path class="st3" d="M35.4,11.3c-1.6-0.4-3.3-0.7-5.1-0.7c-1.8,0-3.5,0.2-5.1,0.7L24,7.1c2-0.5,4.1-0.8,6.2-0.8
		c2.2,0,4.3,0.3,6.2,0.8L35.4,11.3z"/>
	<path class="st4" d="M53.6,36.7l-4.2-1.1c0.4-1.6,0.7-3.3,0.7-5.1c0-1.8-0.2-3.5-0.7-5.1l4.2-1.1c0.5,2,0.8,4.1,0.8,6.2
		C54.4,32.6,54.1,34.7,53.6,36.7z"/>
	<path class="st5" d="M10.5,30.4c0,3.4,0.9,6.6,2.4,9.4v0v8h8c2.9,1.6,6.2,2.4,9.4,2.4c1.8,0,3.5-0.2,5.1-0.7l2.3,8.7
		c-2.4,0.6-4.9,1-7.4,1c-5.5,0-9.6-1.1-14.3-3.8H5.5V45c-2.5-4.3-4-9.3-4-14.6c0-2.6,0.3-5.1,1-7.4l8.7,2.3
		C10.7,27,10.5,28.7,10.5,30.4L10.5,30.4z M20.8,43.6c2,0,3.7-1.7,3.7-3.7c0-2-1.7-3.7-3.7-3.7s-3.7,1.7-3.7,3.7
		C17.1,41.9,18.8,43.6,20.8,43.6z"/>
	<path class="st6" d="M25.1,49.5c1.7,0.5,3.4,0.7,5.1,0.7c1.8,0,3.5-0.2,5.1-0.7l1.1,4.2c-2,0.5-4.1,0.8-6.2,0.8
		c-2.2,0-4.3-0.3-6.2-0.8L25.1,49.5z"/>
	<path class="st7" d="M10.5,30.4c0,1.8,0.2,3.5,0.7,5.1L7,36.7c-0.5-2-0.8-4.1-0.8-6.2c0-2.2,0.3-4.3,0.8-6.2l4.2,1.1
		C10.7,27,10.5,28.7,10.5,30.4z"/>
</g>
</svg>
