<?xml version="1.0" encoding="utf-8"?>
<!-- Generator: Adobe Illustrator 26.2.1, SVG Export Plug-In . SVG Version: 6.00 Build 0)  -->
<svg version="1.1" id="Camada_1" xmlns="http://www.w3.org/2000/svg" xmlns:xlink="http://www.w3.org/1999/xlink" x="0px" y="0px"
	 viewBox="0 0 60 60" style="enable-background:new 0 0 60 60;" xml:space="preserve">
<style type="text/css">
	.st0{fill:#FEFEFE;}
	.st1{fill:#FB9E84;}
</style>
<g>
	<path d="M29.7,32.6c4.2,0,8.4,0,12.6,0c0.3,0,0.3-0.1,0.3-0.3c0-1.6,0-3.1,0-4.7c0-0.6,0.3-0.9,0.9-0.9c1.4,0,2.9,0,4.3,0
		c0.6,0,0.9,0.3,0.9,0.9c0,1.6,0,3.2,0,4.7c0,0.3,0.1,0.3,0.3,0.3c1.5,0,2.9,0,4.4,0c0.9,0,1.4,0.5,1.4,1.4c0,2.7,0,5.4,0,8
		c0,0.7,0,1.3,0,2c0,0.8-0.5,1.3-1.3,1.3c-1.5,0-3,0-4.5,0c-0.3,0-0.3,0.1-0.3,0.3c0,4.3,0,8.7,0,13c0,0.7-0.4,1.2-1,1.4
		c-0.1,0-0.2,0-0.3,0c-1.3,0-2.6,0-3.9,0c-0.2,0-0.3,0-0.4-0.1c-4.4-1.6-8.8-3.2-13.2-4.9c-0.2-0.1-0.3,0-0.4,0c-3,1.1-6,2.2-9,3.3
		c-1.4,0.5-2.8,1-4.2,1.5c-0.2,0.1-0.3,0.1-0.5,0.1c-1.3,0-2.5,0-3.8,0c-0.9,0-1.4-0.5-1.4-1.4c0-4.3,0-8.7,0-13
		c0-0.4,0-0.4-0.4-0.4c-1.5,0-2.9,0-4.4,0c-0.9,0-1.4-0.6-1.4-1.4c0-3.3,0-6.6,0-10c0-0.8,0.5-1.3,1.3-1.3c1.5,0,3,0,4.5,0
		c0.2,0,0.3-0.1,0.3-0.3c0-1.6,0-3.2,0-4.7c0-0.6,0.3-0.9,0.9-0.9c1.4,0,2.9,0,4.3,0c0.5,0,0.9,0.3,0.9,0.9c0,1.6,0,3.2,0,4.8
		c0,0.2,0,0.3,0.3,0.3C21.2,32.6,25.5,32.6,29.7,32.6C29.7,32.6,29.7,32.6,29.7,32.6z M29.7,45.3C29.7,45.3,29.7,45.3,29.7,45.3
		c-4.2,0-8.5,0-12.7,0c-0.2,0-0.3,0-0.3,0.3c0,0.9,0,1.9,0,2.8c0,0.2,0,0.3,0.2,0.4c4.2,1.5,8.4,3.1,12.5,4.6c0.2,0.1,0.3,0,0.5,0
		c4.2-1.5,8.3-3.1,12.5-4.6c0.2-0.1,0.2-0.2,0.2-0.3c0-0.9,0-1.9,0-2.8c0-0.3-0.1-0.3-0.3-0.3C38.1,45.3,33.9,45.3,29.7,45.3z
		 M27.2,34.1c0.1,0.1,0.1,0.2,0.2,0.3c2.4,3.1,4.7,6.2,7.1,9.3c0.1,0.1,0.2,0.2,0.4,0.2c1.6,0,3.2,0,4.8,0c0.1,0,0.2,0,0.2,0
		c0,0-0.1-0.1-0.1-0.1c-2.4-3.1-4.7-6.2-7.1-9.4c-0.1-0.1-0.2-0.2-0.4-0.2c-1.5,0-3.1,0-4.6,0C27.5,34.1,27.3,34.1,27.2,34.1z
		 M32.6,43.8c-0.1-0.1-0.1-0.2-0.2-0.2c-2.4-3.1-4.7-6.2-7.1-9.3c-0.1-0.1-0.2-0.2-0.4-0.2c-1.6,0-3.2,0-4.8,0c-0.1,0-0.1,0-0.2,0
		c0,0,0,0.1,0.1,0.1c2.4,3.1,4.8,6.3,7.2,9.4c0.1,0.1,0.2,0.2,0.3,0.2c1.6,0,3.1,0,4.7,0C32.3,43.8,32.5,43.8,32.6,43.8z M18.3,43.8
		c-0.1-0.1-0.1-0.1-0.1-0.2c-2.3-3-4.6-6-6.9-9.1c-0.3-0.3-0.5-0.5-1-0.5c-0.3,0-0.7,0-1,0c-1,0-2,0-3,0c-0.1,0-0.2-0.1-0.2,0.1
		c0,0.2-0.1,0.5,0.1,0.7c1.6,2.1,3.2,4.2,4.8,6.3c0.6,0.8,1.2,1.5,1.7,2.3c0.2,0.3,0.4,0.3,0.7,0.3c1.4,0,2.9,0,4.3,0
		C18,43.8,18.1,43.8,18.3,43.8z M47,43.8C46.9,43.8,46.9,43.7,47,43.8c-2.5-3.3-4.9-6.4-7.2-9.6c-0.1-0.1-0.2-0.1-0.4-0.1
		c-1.6,0-3.2,0-4.8,0c-0.1,0-0.1,0-0.2,0c0,0,0,0.1,0.1,0.1c2.4,3.1,4.8,6.3,7.1,9.4c0.1,0.1,0.2,0.2,0.4,0.2c1.6,0,3.2,0,4.8,0
		C46.8,43.8,46.9,43.8,47,43.8z M25.5,43.8c0-0.1-0.1-0.1-0.1-0.1c-2.4-3.1-4.8-6.3-7.2-9.4c-0.1-0.1-0.2-0.2-0.4-0.2
		c-1.6,0-3.2,0-4.9,0c0,0-0.1,0-0.1,0c0,0,0.1,0.1,0.1,0.1c2.4,3.1,4.8,6.2,7.1,9.3c0.1,0.1,0.2,0.2,0.4,0.2c1.5,0,3,0,4.5,0
		C25.1,43.8,25.3,43.8,25.5,43.8z M41.5,34.1c0,0.1,0,0.1,0.1,0.1c2.4,3.2,4.8,6.3,7.2,9.5c0.1,0.1,0.2,0.1,0.3,0.1
		c1.1,0,2.2,0,3.3,0c0.3,0,0.6,0.1,0.8,0c0.2-0.2,0-0.5,0.1-0.8c0-0.2,0-0.4-0.2-0.6c-0.3-0.4-0.6-0.8-0.9-1.2
		c-1.8-2.3-3.5-4.7-5.3-7c-0.1-0.1-0.1-0.1-0.3-0.1C44.9,34.1,43.3,34.1,41.5,34.1z M42.7,50.3c-3.6,1.3-7.2,2.7-10.8,4
		c0.1,0,0.1,0.1,0.2,0.1c3.5,1.3,7,2.6,10.4,3.9c0.2,0.1,0.2,0,0.2-0.2c0-2.2,0-4.4,0-6.6C42.7,51,42.7,50.7,42.7,50.3z M27.5,54.3
		c-0.1-0.1-0.2-0.1-0.3-0.1c-3.4-1.3-6.8-2.5-10.2-3.8c-0.2-0.1-0.3,0-0.3,0.2c0,2.5,0,5,0,7.4c0,0.2,0,0.3,0.3,0.2
		c2.1-0.8,4.1-1.5,6.2-2.3C24.6,55.4,26,54.8,27.5,54.3z M12.2,52c0,2.1,0,4.2,0,6.3c0,0.2,0,0.3,0.3,0.3c0.8,0,1.7,0,2.5,0
		c0.2,0,0.3,0,0.3-0.3c0-4.3,0-8.5,0-12.8c0-0.2-0.1-0.3-0.3-0.3c-0.8,0-1.6,0-2.4,0c-0.4,0-0.4,0-0.4,0.3
		C12.2,47.8,12.2,49.9,12.2,52z M44.1,52c0,2.1,0,4.2,0,6.3c0,0.2,0.1,0.3,0.3,0.3c0.8,0,1.7,0,2.5,0c0.2,0,0.3-0.1,0.3-0.3
		c0-4.3,0-8.5,0-12.8c0-0.2-0.1-0.2-0.3-0.2c-0.8,0-1.7,0-2.5,0c-0.2,0-0.3,0.1-0.3,0.3C44.1,47.7,44.1,49.9,44.1,52z M6.1,37.2
		C6.1,37.3,6,37.3,6.1,37.2c0,2.2,0,4.3,0,6.3c0,0.2,0.1,0.2,0.2,0.2c1.5,0,3.1,0,4.6,0c0.1,0,0.1,0,0.2-0.1
		C9.4,41.6,7.8,39.4,6.1,37.2z M53.2,40.1C53.3,40.1,53.3,40.1,53.2,40.1c0-2,0-3.9,0-5.8c0-0.2-0.1-0.2-0.2-0.2c-1.4,0-2.8,0-4.1,0
		c-0.1,0-0.1,0-0.2,0C50.2,36.1,51.7,38.1,53.2,40.1z M12.2,30.4c0,0.7,0,1.3,0,2c0,0.1,0,0.2,0.2,0.2c0.9,0,1.8,0,2.6,0
		c0.2,0,0.2-0.1,0.2-0.2c0-1.3,0-2.7,0-4c0-0.2-0.1-0.2-0.2-0.2c-0.9,0-1.7,0-2.6,0c-0.2,0-0.2,0.1-0.2,0.2
		C12.2,29.1,12.2,29.7,12.2,30.4z M44.1,30.4c0,0.7,0,1.3,0,2c0,0.2,0,0.2,0.2,0.2c0.9,0,1.7,0,2.6,0c0.2,0,0.2,0,0.2-0.2
		c0-1.3,0-2.7,0-4c0-0.2-0.1-0.2-0.2-0.2c-0.9,0-1.7,0-2.6,0c-0.2,0-0.2,0.1-0.2,0.2C44.1,29.1,44.1,29.7,44.1,30.4z"/>
	<path d="M22.3,5.1c-0.8-0.6-1.5-1.1-2.2-1.6c-0.1-0.1-0.2-0.2-0.3-0.2c-0.4-0.3-0.4-0.7-0.2-1.1c0.3-0.3,0.7-0.4,1.1-0.1
		c0.6,0.5,1.3,1,1.9,1.4c0.4,0.3,0.8,0.6,1.2,0.9c0.1,0.1,0.3,0.1,0.4,0.1c1.6-0.6,3.1-1.1,4.7-1.6c2.1-0.7,4-0.3,5.8,1
		c0.5,0.4,0.5,0.4,1,0c0.8-0.6,1.5-1.2,2.3-1.7c0.3-0.2,0.6-0.2,0.9,0c0.3,0.2,0.4,0.5,0.3,0.8c0,0.2-0.2,0.3-0.3,0.5
		c-0.8,0.6-1.7,1.3-2.5,1.9c-0.2,0.2-0.4,0.3-0.6,0.5c-0.3,0.3-0.7,0.3-1,0c-0.5-0.5-1.1-0.9-1.8-1.2c-1.2-0.5-2.4-0.6-3.6-0.2
		C27,5,24.6,5.8,22.2,6.7C21.3,7,21,7.9,21.5,8.6C21.9,9.1,22.4,9.2,23,9c1.4-0.5,2.9-1,4.3-1.5c1-0.4,2.1-0.7,3.1-1.1
		c0.3-0.1,0.6,0,0.9,0.1c3,2.1,6,4.2,9,6.3c0.1,0,0.1,0.1,0.2,0.2c0-0.2,0-0.4,0-0.6c0-0.3,0.1-0.5,0.3-0.7c1-0.7,1.9-1.4,2.9-2.2
		c0.4-0.3,0.8-0.2,1.1,0.1c0.2,0.3,0.2,0.8-0.2,1c-0.8,0.6-1.6,1.2-2.4,1.8c-0.2,0.1-0.3,0.2-0.3,0.5c0,0.2,0,0.3-0.1,0.5
		c-0.1,0.4-0.1,0.8,0,1.2c0.3,1.5-0.7,3-2.2,3.2c-0.2,0-0.2,0.1-0.3,0.3c-0.1,1.5-1.4,2.6-2.9,2.6c-0.2,0-0.3,0-0.3,0.3
		c-0.2,1.2-1.4,2-2.7,1.9c-0.3,0-0.3,0-0.3,0.3c-0.1,1.2-1.2,2-2.4,2c-0.8,0-1.4-0.3-2-0.8c-0.4-0.3-0.7-0.5-1.1-0.8
		c-0.1-0.1-0.2-0.1-0.3,0c-0.6,0.5-1.3,0.9-1.9,1.4c-1.2,0.9-2.9,0.3-3.3-1.1c-0.1-0.2-0.1-0.2-0.3-0.3c-1,0-1.8-0.7-2-1.7
		c0-0.1-0.1-0.2-0.2-0.2c-1.1-0.1-1.9-0.9-2-2c0-0.2-0.1-0.2-0.2-0.3c-1-0.2-1.6-0.8-1.8-1.8c-0.2-0.9,0.1-1.7,0.9-2.3
		c0.2-0.1,0.4-0.3,0.6-0.4c0.1-0.1,0.2-0.1,0.1-0.3c-0.2-0.5-0.3-1-0.3-1.6c0-0.2-0.1-0.2-0.2-0.3c-0.8-0.6-1.6-1.2-2.4-1.8
		c-0.3-0.2-0.4-0.5-0.3-0.8C14,9.6,14.6,9.3,15,9.6c1,0.7,2,1.5,3,2.3c0.2,0.2,0.3,0.4,0.2,0.7c0,0.3,0,0.7,0.1,1
		c0,0.2,0.1,0.3,0.3,0.1c0.8-0.6,1.7-1.2,2.5-1.8c0.3-0.2,0.5-0.4,0.8-0.5c1.4-0.9,3.3-0.1,3.5,1.5c0,0.2,0.1,0.3,0.3,0.4
		c1,0.2,1.7,1,1.8,1.9c0,0.1,0.1,0.2,0.2,0.2c1,0.2,1.6,0.8,1.8,1.8c0,0.2,0.1,0.2,0.3,0.2c1.1,0.2,1.9,1.1,1.9,2.2
		c0,0.1,0,0.3-0.1,0.4c-0.1,0.2,0,0.3,0.1,0.4c0.5,0.3,1,0.6,1.5,0.9c0.3,0.2,0.6,0.2,0.9,0.1c0.5-0.1,0.8-0.6,0.6-1.1
		c-0.1-0.3-0.3-0.6-0.6-0.8c-1.4-1-2.8-2-4.1-2.9c-0.6-0.4-1.1-0.8-1.7-1.2c-0.4-0.3-0.5-0.7-0.3-1.1c0.3-0.4,0.7-0.4,1.1-0.1
		c2.3,1.6,4.6,3.2,6.8,4.9c0.7,0.5,1.6,0.2,1.8-0.7c0.1-0.4,0-0.8-0.4-1.1c-2.2-1.5-4.3-3.1-6.5-4.6c-0.2-0.2-0.4-0.3-0.4-0.6
		c0-0.3,0.1-0.6,0.4-0.7c0.3-0.2,0.6-0.1,0.8,0c0.7,0.5,1.4,1,2.1,1.5c1.6,1.1,3.2,2.3,4.8,3.4c0.3,0.2,0.5,0.2,0.8,0.1
		c0.6-0.2,1-0.9,0.9-1.5c0-0.1-0.1-0.2-0.2-0.3c-3.2-2.2-6.3-4.4-9.5-6.7c-0.1-0.1-0.3-0.1-0.4,0c-2.3,0.8-4.6,1.6-6.9,2.4
		C21.7,11.1,20,9.9,19.8,8c-0.1-1.2,0.7-2.3,1.8-2.7C21.8,5.2,22.1,5.1,22.3,5.1z M24,13.3c0-0.4-0.2-0.6-0.4-0.8
		c-0.3-0.1-0.5-0.1-0.8,0.1c-0.6,0.4-1.1,0.8-1.7,1.2c-1.3,0.9-2.6,1.8-3.8,2.7c-0.4,0.3-0.5,0.7-0.2,1.1c0.3,0.4,0.7,0.4,1.1,0.1
		c0.2-0.1,0.3-0.2,0.5-0.4c1.6-1.2,3.3-2.3,4.9-3.5C23.8,13.7,24,13.6,24,13.3z M26.1,15.3c0-0.2-0.1-0.4-0.4-0.6
		c-0.3-0.1-0.5-0.1-0.8,0c-1.9,1.3-3.8,2.7-5.7,4c-0.1,0.1-0.2,0.2-0.3,0.4c-0.1,0.3,0.1,0.6,0.3,0.8c0.3,0.2,0.6,0.2,0.9,0
		c1-0.7,2-1.4,3-2.2c0.8-0.6,1.7-1.2,2.5-1.8C26,15.9,26.1,15.7,26.1,15.3z M28.1,17.5c0-0.3-0.1-0.5-0.4-0.6
		c-0.3-0.2-0.5-0.1-0.8,0.1c-1.8,1.3-3.6,2.6-5.4,3.8c-0.4,0.3-0.4,0.6-0.2,1c0.2,0.3,0.6,0.4,1,0.1c0.5-0.4,1.1-0.8,1.6-1.1
		c1.3-0.9,2.6-1.8,3.8-2.7C27.9,18,28.1,17.8,28.1,17.5z M24.2,23.9c0.1,0,0.3,0,0.4-0.1c0.2-0.1,0.3-0.2,0.5-0.3
		c1.6-1.1,3.2-2.3,4.8-3.4c0.3-0.2,0.4-0.6,0.2-0.9c-0.2-0.4-0.6-0.4-1-0.2c-0.2,0.1-0.3,0.2-0.5,0.4c-1.6,1.1-3.2,2.3-4.8,3.4
		c-0.3,0.2-0.4,0.4-0.3,0.7C23.6,23.7,23.9,23.9,24.2,23.9z M28.8,22.6c0.4,0.3,0.7,0.5,1.1,0.8c0.4,0.2,0.8,0.4,1.2,0.3
		c0.5,0,0.8-0.4,0.7-0.9c-0.1-0.7-0.6-1.1-1.1-1.4c-0.1-0.1-0.1,0-0.2,0C29.9,21.9,29.4,22.2,28.8,22.6z"/>
	<path d="M51.8,10.9c4,0,7.2,3.2,7.2,7.2c0,4-3.2,7.2-7.2,7.2c-4,0-7.2-3.2-7.2-7.2C44.6,14.2,47.9,10.9,51.8,10.9z M49,23.1
		L49,23.1L49,23.1c-0.2-0.3-0.3-0.7-0.4-1.1c-0.3-0.9-0.5-1.9-0.6-2.9c0-0.2-0.1-0.3-0.3-0.3c-0.5,0-0.9,0-1.4,0
		c-0.2,0-0.2,0-0.2,0.2c0.1,0.7,0.3,1.3,0.7,1.9C47.4,21.8,48.1,22.6,49,23.1z M51.8,17.3C51.8,17.3,51.8,17.3,51.8,17.3
		c0.7,0,1.4,0,2.1,0c0.1,0,0.2,0,0.2-0.2c-0.1-1-0.3-2-0.7-3c-0.2-0.6-0.5-1.1-1-1.5c-0.4-0.3-0.7-0.3-1.1,0
		c-0.3,0.2-0.5,0.5-0.7,0.8c-0.7,1.1-0.9,2.4-1,3.7c0,0.2,0.1,0.2,0.2,0.2C50.4,17.3,51.1,17.3,51.8,17.3z M51.8,18.8
		C51.8,18.8,51.8,18.8,51.8,18.8c-0.7,0-1.4,0-2.1,0c-0.1,0-0.2,0-0.2,0.2c0.1,1,0.3,1.9,0.6,2.8c0.2,0.5,0.5,1,0.9,1.5
		c0.5,0.5,1,0.5,1.5,0c0.3-0.3,0.5-0.7,0.7-1.1c0.4-1,0.7-2,0.8-3c0-0.4,0-0.4-0.3-0.4C53.1,18.8,52.5,18.8,51.8,18.8z M54.6,23.1
		c0.3-0.2,0.6-0.4,0.8-0.6c1.1-0.9,1.7-2,2-3.4c0-0.2,0-0.3-0.2-0.3c-0.4,0-0.9,0-1.3,0c-0.2,0-0.2,0.1-0.2,0.2
		c0,0.4-0.1,0.9-0.1,1.3C55.3,21.3,55,22.2,54.6,23.1z M49,13.2c-1.5,0.9-2.4,2.2-2.7,3.9c0,0.2,0,0.2,0.2,0.2c0.4,0,0.8,0,1.3,0
		c0.3,0,0.4-0.1,0.4-0.3C48.1,15.7,48.4,14.4,49,13.2z M54.7,13.2c0.6,1.6,0.7,2,0.9,3.9c0,0.1,0.1,0.2,0.2,0.2c0.5,0,1,0,1.5,0
		c0.1,0,0.2,0,0.1-0.2C57.1,15.5,56.2,14.2,54.7,13.2z"/>
	<path d="M8.2,12.3c2,0,3.8,0.5,5.5,1.5c0.5,0.3,0.6,1,0.1,1.3c-0.3,0.2-0.6,0.2-0.8,0c-1-0.6-2-1-3.2-1.2c-3.1-0.5-5.7,0.4-7.9,2.5
		c-0.2,0.2-0.5,0.3-0.8,0.2c-0.3-0.1-0.4-0.3-0.5-0.6c-0.1-0.3,0-0.5,0.2-0.7c1.4-1.4,3.1-2.4,5.1-2.8C6.5,12.4,7.3,12.3,8.2,12.3z"
		/>
	<path d="M10.7,22.5c0,1.4-1.1,2.6-2.6,2.6c-1.4,0-2.6-1.2-2.6-2.5c0-1.4,1.1-2.6,2.6-2.6C9.5,19.9,10.7,21.1,10.7,22.5z M8.1,23.6
		c0.6,0,1.1-0.5,1.1-1.1c0-0.6-0.5-1.1-1.1-1.1c-0.6,0-1.1,0.5-1.1,1.1C7,23.1,7.5,23.6,8.1,23.6z"/>
	<path d="M8.3,14.8c1.4,0,2.7,0.4,3.9,1.1c0.4,0.3,0.6,0.7,0.4,1.1c-0.2,0.4-0.7,0.5-1.1,0.2c-2.6-1.5-5.7-1.1-7.9,1
		c-0.3,0.3-0.8,0.4-1.1,0.1c-0.3-0.3-0.3-0.8,0-1.1c1.3-1.3,2.9-2.1,4.8-2.3c0.2,0,0.4,0,0.6,0C8,14.8,8.2,14.8,8.3,14.8z"/>
	<path d="M4.3,19.6c0-0.2,0.1-0.4,0.2-0.5c1.8-1.9,5.1-2,7-0.2c0.4,0.4,0.4,0.8,0.1,1.1c-0.3,0.3-0.7,0.3-1.1,0
		c-1.3-1.1-2.9-1.2-4.3-0.4C6,19.8,5.8,20,5.5,20.2c-0.2,0.2-0.5,0.3-0.8,0.1C4.4,20.2,4.3,19.9,4.3,19.6z"/>
	<path class="st0" d="M29.7,45.3c4.2,0,8.4,0,12.7,0c0.2,0,0.3,0,0.3,0.3c0,0.9,0,1.9,0,2.8c0,0.2,0,0.3-0.2,0.3
		c-4.2,1.5-8.3,3.1-12.5,4.6c-0.2,0.1-0.3,0.1-0.5,0c-4.2-1.6-8.4-3.1-12.5-4.6c-0.2-0.1-0.3-0.2-0.2-0.4c0-0.9,0-1.9,0-2.8
		c0-0.2,0.1-0.3,0.3-0.3C21.2,45.3,25.5,45.3,29.7,45.3C29.7,45.3,29.7,45.3,29.7,45.3z"/>
	<path class="st0" d="M27.2,34.1c0.2,0,0.3,0,0.4,0c1.5,0,3.1,0,4.6,0c0.2,0,0.3,0.1,0.4,0.2c2.4,3.1,4.7,6.2,7.1,9.4
		c0,0,0,0.1,0.1,0.1c-0.1,0.1-0.2,0-0.2,0c-1.6,0-3.2,0-4.8,0c-0.2,0-0.3,0-0.4-0.2c-2.4-3.1-4.7-6.2-7.1-9.3
		C27.3,34.3,27.2,34.2,27.2,34.1z"/>
	<path class="st0" d="M32.6,43.8c-0.2,0-0.3,0-0.4,0c-1.6,0-3.1,0-4.7,0c-0.1,0-0.2,0-0.3-0.2c-2.4-3.1-4.8-6.3-7.2-9.4
		c0,0,0-0.1-0.1-0.1c0.1-0.1,0.1,0,0.2,0c1.6,0,3.2,0,4.8,0c0.2,0,0.3,0,0.4,0.2c2.4,3.1,4.7,6.2,7.1,9.3
		C32.5,43.6,32.6,43.7,32.6,43.8z"/>
	<path class="st0" d="M18.3,43.8c-0.2,0-0.4,0-0.5,0c-1.4,0-2.9,0-4.3,0c-0.3,0-0.5,0-0.7-0.3c-0.5-0.8-1.1-1.5-1.7-2.3
		c-1.6-2.1-3.2-4.2-4.8-6.3c-0.2-0.2-0.1-0.5-0.1-0.7c0-0.2,0.1-0.1,0.2-0.1c1,0,2,0,3,0c0.3,0,0.7,0,1,0c0.4,0,0.7,0.1,1,0.5
		c2.3,3,4.6,6,6.9,9.1C18.2,43.7,18.3,43.7,18.3,43.8z"/>
	<path class="st0" d="M47,43.8c-0.1,0-0.2,0-0.2,0c-1.6,0-3.2,0-4.8,0c-0.2,0-0.3-0.1-0.4-0.2c-2.4-3.1-4.7-6.3-7.1-9.4
		c0,0,0-0.1-0.1-0.1c0.1-0.1,0.1,0,0.2,0c1.6,0,3.2,0,4.8,0c0.1,0,0.3,0,0.4,0.1C42.1,37.4,44.5,40.6,47,43.8
		C46.9,43.7,46.9,43.8,47,43.8z"/>
	<path class="st0" d="M25.5,43.8c-0.2,0-0.3,0-0.5,0c-1.5,0-3,0-4.5,0c-0.2,0-0.3,0-0.4-0.2c-2.4-3.1-4.8-6.2-7.1-9.3
		c0,0-0.1-0.1-0.1-0.1c0-0.1,0.1,0,0.1,0c1.6,0,3.2,0,4.9,0c0.2,0,0.3,0,0.4,0.2c2.4,3.1,4.8,6.3,7.2,9.4
		C25.4,43.7,25.4,43.7,25.5,43.8z"/>
	<path class="st0" d="M41.5,34.1c1.7,0,3.4,0,5.1,0c0.1,0,0.2,0.1,0.3,0.1c1.8,2.3,3.5,4.7,5.3,7c0.3,0.4,0.6,0.8,0.9,1.2
		c0.1,0.2,0.2,0.3,0.2,0.6c0,0.3,0.1,0.6-0.1,0.8c-0.2,0.1-0.5,0-0.8,0c-1.1,0-2.2,0-3.3,0c-0.1,0-0.2,0-0.3-0.1
		c-2.4-3.2-4.8-6.3-7.2-9.5C41.6,34.2,41.6,34.2,41.5,34.1z"/>
	<path class="st0" d="M42.7,50.3c0,0.4,0,0.7,0,1.1c0,2.2,0,4.4,0,6.6c0,0.2,0,0.3-0.2,0.2c-3.5-1.3-7-2.6-10.4-3.9
		c0,0-0.1,0-0.2-0.1C35.5,52.9,39,51.6,42.7,50.3z"/>
	<path class="st0" d="M27.5,54.3c-1.5,0.6-2.9,1.1-4.3,1.6c-2.1,0.8-4.1,1.5-6.2,2.3c-0.2,0.1-0.3,0-0.3-0.2c0-2.5,0-5,0-7.4
		c0-0.2,0-0.3,0.3-0.2c3.4,1.3,6.8,2.5,10.2,3.8C27.3,54.2,27.4,54.2,27.5,54.3z"/>
	<path class="st1" d="M12.2,52c0-2.1,0-4.2,0-6.3c0-0.3,0-0.3,0.4-0.3c0.8,0,1.6,0,2.4,0c0.2,0,0.3,0,0.3,0.3c0,4.3,0,8.5,0,12.8
		c0,0.2-0.1,0.3-0.3,0.3c-0.8,0-1.7,0-2.5,0c-0.2,0-0.3-0.1-0.3-0.3C12.2,56.2,12.2,54.1,12.2,52z"/>
	<path class="st1" d="M44.1,52c0-2.1,0-4.2,0-6.4c0-0.2,0.1-0.3,0.3-0.3c0.8,0,1.7,0,2.5,0c0.2,0,0.3,0,0.3,0.2c0,4.3,0,8.5,0,12.8
		c0,0.2-0.1,0.3-0.3,0.3c-0.8,0-1.7,0-2.5,0c-0.2,0-0.3-0.1-0.3-0.3C44.1,56.2,44.1,54.1,44.1,52z"/>
	<path class="st0" d="M6.1,37.2c1.7,2.2,3.3,4.4,5,6.5c0,0.1-0.1,0.1-0.2,0.1c-1.5,0-3.1,0-4.6,0c-0.2,0-0.2,0-0.2-0.2
		C6,41.5,6,39.4,6.1,37.2C6,37.3,6.1,37.3,6.1,37.2z"/>
	<path class="st0" d="M53.2,40.1c-1.5-2-3-4-4.5-6c0.1-0.1,0.1,0,0.2,0c1.4,0,2.8,0,4.1,0c0.1,0,0.2,0,0.2,0.2
		C53.3,36.2,53.3,38.1,53.2,40.1C53.3,40.1,53.3,40.1,53.2,40.1z"/>
	<path class="st1" d="M12.2,30.4c0-0.7,0-1.3,0-2c0-0.2,0-0.3,0.2-0.2c0.9,0,1.7,0,2.6,0c0.2,0,0.2,0,0.2,0.2c0,1.3,0,2.7,0,4
		c0,0.2-0.1,0.2-0.2,0.2c-0.9,0-1.8,0-2.6,0c-0.2,0-0.2-0.1-0.2-0.2C12.2,31.7,12.2,31.1,12.2,30.4z"/>
	<path class="st1" d="M44.1,30.4c0-0.7,0-1.3,0-2c0-0.2,0-0.2,0.2-0.2c0.9,0,1.7,0,2.6,0c0.2,0,0.2,0.1,0.2,0.2c0,1.3,0,2.7,0,4
		c0,0.2-0.1,0.2-0.2,0.2c-0.9,0-1.7,0-2.6,0c-0.2,0-0.2-0.1-0.2-0.2C44.1,31.7,44.1,31.1,44.1,30.4z"/>
	<path class="st0" d="M24,13.3c0,0.3-0.2,0.4-0.4,0.6c-1.6,1.2-3.3,2.3-4.9,3.5c-0.2,0.1-0.3,0.2-0.5,0.4c-0.4,0.3-0.8,0.2-1.1-0.1
		c-0.3-0.4-0.2-0.8,0.2-1.1c1.3-0.9,2.6-1.8,3.8-2.7c0.6-0.4,1.1-0.8,1.7-1.2c0.3-0.2,0.5-0.2,0.8-0.1C23.8,12.7,24,12.9,24,13.3z"
		/>
	<path class="st0" d="M26.1,15.3c0,0.4-0.2,0.6-0.4,0.8c-0.8,0.6-1.7,1.2-2.5,1.8c-1,0.7-2,1.4-3,2.2c-0.3,0.2-0.6,0.2-0.9,0
		c-0.3-0.2-0.4-0.5-0.3-0.8c0-0.2,0.1-0.3,0.3-0.4c1.9-1.3,3.8-2.7,5.7-4c0.3-0.2,0.5-0.2,0.8,0C26,14.9,26.1,15.1,26.1,15.3z"/>
	<path class="st0" d="M28.1,17.5c0,0.3-0.1,0.4-0.3,0.6c-1.3,0.9-2.6,1.8-3.8,2.7c-0.5,0.4-1.1,0.8-1.6,1.1c-0.4,0.3-0.8,0.2-1-0.1
		c-0.2-0.3-0.2-0.7,0.2-1c1.8-1.3,3.6-2.6,5.4-3.8c0.2-0.2,0.5-0.3,0.8-0.1C27.9,17.1,28.1,17.3,28.1,17.5z"/>
	<path class="st0" d="M24.2,23.9c-0.3,0-0.6-0.2-0.7-0.5c-0.1-0.3,0-0.5,0.3-0.7c1.6-1.1,3.2-2.3,4.8-3.4c0.2-0.1,0.3-0.2,0.5-0.4
		c0.4-0.2,0.7-0.2,1,0.2c0.2,0.3,0.1,0.7-0.2,0.9c-1.6,1.1-3.2,2.3-4.8,3.4c-0.2,0.1-0.3,0.2-0.5,0.3C24.5,23.9,24.3,23.9,24.2,23.9
		z"/>
	<path class="st0" d="M28.8,22.6c0.6-0.4,1.1-0.8,1.6-1.2c0.1,0,0.1-0.1,0.2,0c0.5,0.4,1,0.8,1.1,1.4c0.1,0.5-0.2,0.9-0.7,0.9
		c-0.4,0-0.8-0.1-1.2-0.3C29.5,23.2,29.2,22.9,28.8,22.6z"/>
	<path class="st0" d="M51.8,17.3c-0.7,0-1.4,0-2.1,0c-0.1,0-0.2,0-0.2-0.2c0.1-1.3,0.4-2.6,1-3.7c0.2-0.3,0.4-0.6,0.7-0.8
		c0.4-0.3,0.7-0.3,1.1,0c0.5,0.4,0.8,0.9,1,1.5c0.4,1,0.6,2,0.7,3c0,0.2-0.1,0.2-0.2,0.2C53.2,17.3,52.5,17.3,51.8,17.3
		C51.8,17.3,51.8,17.3,51.8,17.3z"/>
	<path class="st0" d="M51.8,18.8c0.6,0,1.3,0,1.9,0c0.4,0,0.4,0,0.3,0.4c-0.1,1-0.3,2.1-0.8,3c-0.2,0.4-0.4,0.8-0.7,1.1
		c-0.5,0.5-1,0.5-1.5,0c-0.4-0.4-0.7-0.9-0.9-1.5c-0.4-0.9-0.5-1.8-0.6-2.8c0-0.2,0-0.2,0.2-0.2C50.4,18.8,51.1,18.8,51.8,18.8
		C51.8,18.8,51.8,18.8,51.8,18.8z"/>
	<path class="st0" d="M49,23.1c-0.9-0.5-1.6-1.2-2.2-2.1c-0.3-0.6-0.6-1.2-0.7-1.9c0-0.2,0-0.2,0.2-0.2c0.5,0,0.9,0,1.4,0
		c0.2,0,0.3,0.1,0.3,0.3c0.1,1,0.2,2,0.6,2.9C48.7,22.4,48.9,22.7,49,23.1L49,23.1z"/>
	<path class="st0" d="M54.6,23.1c0.5-0.9,0.7-1.8,0.9-2.7c0.1-0.4,0.1-0.9,0.1-1.3c0-0.2,0.1-0.2,0.2-0.2c0.4,0,0.9,0,1.3,0
		c0.3,0,0.3,0.1,0.2,0.3c-0.3,1.4-0.9,2.5-2,3.4C55.2,22.7,54.9,22.9,54.6,23.1z"/>
	<path class="st0" d="M49,13.2c-0.6,1.2-0.8,2.5-0.9,3.7c0,0.3-0.1,0.4-0.4,0.3c-0.4,0-0.8,0-1.3,0c-0.2,0-0.2,0-0.2-0.2
		C46.6,15.4,47.5,14.1,49,13.2z"/>
	<path class="st0" d="M54.7,13.2c1.5,0.9,2.4,2.2,2.7,3.9c0,0.1,0,0.2-0.1,0.2c-0.5,0-1,0-1.5,0c-0.1,0-0.2,0-0.2-0.2
		C55.4,15.2,55.3,14.8,54.7,13.2z"/>
	<polygon class="st0" points="49,23.1 49,23.1 49,23.1 	"/>
	<path class="st1" d="M8.1,23.6c-0.6,0-1.1-0.5-1.1-1.1c0-0.6,0.5-1.1,1.1-1.1c0.6,0,1.1,0.5,1.1,1.1C9.2,23.1,8.7,23.6,8.1,23.6z"
		/>
</g>
</svg>
