<?xml version="1.0" encoding="utf-8"?>
<!-- Generator: Adobe Illustrator 26.2.1, SVG Export Plug-In . SVG Version: 6.00 Build 0)  -->
<svg version="1.1" id="Camada_1" xmlns="http://www.w3.org/2000/svg" xmlns:xlink="http://www.w3.org/1999/xlink" x="0px" y="0px"
	 viewBox="0 0 60 60" style="enable-background:new 0 0 60 60;" xml:space="preserve">
<style type="text/css">
	.st0{fill:#EAAE2A;}
	.st1{fill:#93908A;}
	.st2{fill-rule:evenodd;clip-rule:evenodd;fill:#FFD900;}
	.st3{fill-rule:evenodd;clip-rule:evenodd;fill:#FFFFFF;}
</style>
<g>
	<g>
		<path class="st0" d="M0.3,14.7v30c0,2,1.6,3.6,3.6,3.6h39.7c2,0,3.6-1.6,3.6-3.6v-30H0.3z"/>
		<path class="st1" d="M47.1,31V14.7H0.3v16.8C0.3,31.5,25.8,39.5,47.1,31z"/>
		<g>
			<path class="st0" d="M47.1,30.4V14.7H0.3v15.7C0.3,30.4,22.8,37.4,47.1,30.4z"/>
		</g>
		<g>
			<rect x="0.3" y="14.7" class="st0" width="46.8" height="4.9"/>
		</g>
		<rect x="20.8" y="30.6" class="st1" width="5.8" height="4.9"/>
		<g>
			<path class="st0" d="M34.3,14.7H32v-2.8c0-0.8-0.7-1.5-1.5-1.5H17c-0.8,0-1.5,0.7-1.5,1.5v2.8h-2.4v-2.8C13.1,9.7,14.9,8,17,8
				h13.4c2.1,0,3.9,1.7,3.9,3.9V14.7z"/>
		</g>
	</g>
	<g>
		<path class="st2" d="M44.2,18.3c4.9,0,8.9,4,8.9,8.9c0,4.9-4,8.9-8.9,8.9c-4.9,0-8.9-4-8.9-8.9C35.4,22.3,39.3,18.3,44.2,18.3
			L44.2,18.3z"/>
		<path class="st3" d="M44.2,20.7c3.6,0,6.5,2.9,6.5,6.5h-2.3c0-2.3-1.9-4.2-4.2-4.2V20.7L44.2,20.7z"/>
		<path class="st2" d="M53.7,33.9c3,1.5,5.1,4.6,5.1,8.1v6.3c0,1.5-1.2,2.7-2.7,2.7H45.3c0.6,0,1.1-0.5,1.1-1.1v-5.1
			c0-0.6-0.5-1.1-1-1.1v-5C48.8,38.4,51.8,36.5,53.7,33.9L53.7,33.9z M43.1,43.7c-0.6,0-1,0.5-1,1.1V50c0,0.6,0.5,1.1,1.1,1.1H32.3
			c-1.5,0-2.7-1.2-2.7-2.7V42c0-3.6,2.1-6.7,5.1-8.1c1.9,2.7,4.9,4.5,8.3,4.8V43.7L43.1,43.7z"/>
	</g>
</g>
</svg>
