<svg id="SvgjsSvg1001" width="288" height="288" xmlns="http://www.w3.org/2000/svg" version="1.1" xmlns:xlink="http://www.w3.org/1999/xlink" xmlns:svgjs="http://svgjs.com/svgjs"><defs id="SvgjsDefs1002"></defs><g id="SvgjsG1008"><svg xmlns="http://www.w3.org/2000/svg" xmlns:xlink="http://www.w3.org/1999/xlink" id="Camada_1" x="0" y="0" enable-background="new 0 0 60 60" version="1.1" viewBox="0 0 60 60" xml:space="preserve" width="288" height="288"><linearGradient id="SVGID_1_" x1="37.189" x2="22.785" y1="20.137" y2="45.951" gradientUnits="userSpaceOnUse"><stop offset="0" stop-color="#ffbf66" class="stopColordae3fe svgShape"></stop><stop offset="1" stop-color="#e9effd" class="stopColore9effd svgShape"></stop></linearGradient><path fill="url(#SVGID_1_)" d="M52.9,51.3c-1.5,1.6-2.9,2.5-4,3.2c-10.3,6.9-22,4.9-25.7,4.2c-5.9-1.1-10.8-1.9-15.1-5.7
		C-1.5,44.3-1,26,6.4,14.7c0.9-1.3,8.3-12.3,20-13.8c0.3,0,0.5-0.1,0.7-0.1c1.8-0.2,13.1-1.2,22.3,6.5c1.3,1.1,3.4,3.1,5.4,6.1
		C62,24.6,62,41.8,52.9,51.3z"></path><rect width="4.7" height=".6" x="49.2" y="29.2" fill="#969696" transform="rotate(-66.309 51.54 29.481)" class="colorbdd0fb svgShape"></rect><path fill="#ebef30" d="M48.1,23.2l0.1,0.7c0,0.2,0.2,0.4,0.5,0.5l0.6,0.1c0.1,0,0.3,0.1,0.3,0.3c0.2,0.3,0.4,0.7,0.6,1
				c0.1,0.1,0.1,0.3,0.1,0.4l-0.2,0.5c-0.1,0.2,0,0.5,0.2,0.6l0.6,0.4c0.2,0.1,0.5,0.1,0.6,0l0.5-0.3c0.1-0.1,0.3-0.1,0.4-0.1
				c0.4,0.1,0.7,0.2,1.1,0.3c0.2,0,0.3,0.1,0.4,0.2l0.3,0.5c0.1,0.2,0.3,0.3,0.6,0.3l0.7-0.1c0.2,0,0.4-0.2,0.5-0.5l0.1-0.6
				c0-0.1,0.1-0.3,0.3-0.3c0.3-0.2,0.7-0.4,1-0.6c0.1-0.1,0.3-0.1,0.4-0.1l0.5,0.2c0.2,0.1,0.5,0,0.6-0.2l0.4-0.6
				c0.1-0.2,0.1-0.5,0-0.6l-0.3-0.5c-0.1-0.1-0.1-0.3-0.1-0.4c0.1-0.4,0.2-0.7,0.3-1.1c0-0.2,0.1-0.3,0.2-0.4l0.5-0.3
				c0.2-0.1,0.3-0.3,0.3-0.6l-0.1-0.7c0-0.2-0.2-0.4-0.5-0.5l-0.6-0.1c-0.1,0-0.3-0.1-0.3-0.3c-0.2-0.3-0.4-0.7-0.6-1
				c-0.1-0.1-0.1-0.3-0.1-0.4l0.2-0.5c0.1-0.2,0-0.5-0.2-0.6l-0.6-0.4c-0.2-0.1-0.5-0.1-0.6,0l-0.5,0.3c-0.1,0.1-0.3,0.1-0.4,0.1
				c-0.4-0.1-0.7-0.2-1.1-0.3c-0.2,0-0.3-0.1-0.4-0.2l-0.3-0.5c-0.1-0.2-0.3-0.3-0.6-0.3l-0.7,0.1c-0.2,0-0.4,0.2-0.5,0.5l-0.1,0.6
				c0,0.1-0.1,0.3-0.3,0.3c-0.3,0.2-0.7,0.4-1,0.6c-0.1,0.1-0.3,0.1-0.4,0.1L50,18.6c-0.2-0.1-0.5,0-0.6,0.2l-0.4,0.6
				c-0.1,0.2-0.1,0.5,0,0.6l0.3,0.5c0.1,0.1,0.1,0.3,0.1,0.4c-0.1,0.4-0.2,0.7-0.3,1.1c0,0.2-0.1,0.3-0.2,0.4l-0.5,0.3
				C48.1,22.7,48,22.9,48.1,23.2z M49.9,22.8c-0.2-2.3,1.6-4.2,3.8-4.4c2.3-0.2,4.2,1.6,4.4,3.8c0.2,2.3-1.6,4.2-3.8,4.4
				C52,26.8,50.1,25.1,49.9,22.8z" class="color91b3fa svgShape"></path><rect width=".6" height="7.7" x="51" y="10" fill="#969696" transform="rotate(-12.499 51.296 13.918)" class="colorbdd0fb svgShape"></rect><rect width="5.6" height=".6" x="41.5" y="7.7" fill="#969696" transform="rotate(-6.332 44.233 8.016)" class="colorbdd0fb svgShape"></rect><path fill="#ebef30" d="M46.2,6.8l0.1,0.5c0,0.2,0.2,0.3,0.3,0.3L47,7.7c0.1,0,0.2,0.1,0.3,0.2c0.1,0.3,0.3,0.5,0.4,0.7
				c0.1,0.1,0.1,0.2,0.1,0.3l-0.1,0.4c0,0.2,0,0.3,0.2,0.4l0.4,0.3c0.1,0.1,0.3,0.1,0.5,0l0.3-0.2c0.1-0.1,0.2-0.1,0.3,0
				c0.3,0.1,0.5,0.2,0.8,0.2c0.1,0,0.2,0.1,0.3,0.2l0.2,0.4c0.1,0.2,0.3,0.2,0.4,0.2l0.5-0.1c0.2,0,0.3-0.2,0.3-0.3L52,9.9
				c0-0.1,0.1-0.2,0.2-0.3c0.3-0.1,0.5-0.3,0.7-0.4c0.1-0.1,0.2-0.1,0.3-0.1l0.4,0.1c0.2,0,0.3,0,0.4-0.2l0.3-0.4
				c0.1-0.1,0.1-0.3,0-0.5l-0.2-0.3c-0.1-0.1-0.1-0.2,0-0.3c0.1-0.3,0.2-0.5,0.2-0.8c0-0.1,0.1-0.2,0.2-0.3l0.4-0.2
				C54.9,6.2,55,6,55,5.8l-0.1-0.5c0-0.2-0.2-0.3-0.3-0.3l-0.4-0.1c-0.1,0-0.2-0.1-0.3-0.2c-0.1-0.3-0.3-0.5-0.4-0.7
				c-0.1-0.1-0.1-0.2-0.1-0.3l0.1-0.4c0-0.2,0-0.3-0.2-0.4l-0.4-0.3c-0.1-0.1-0.3-0.1-0.5,0l-0.3,0.2c-0.1,0.1-0.2,0.1-0.3,0
				c-0.3-0.1-0.5-0.2-0.8-0.2c-0.1,0-0.2-0.1-0.3-0.2l-0.2-0.4c-0.1-0.2-0.3-0.2-0.4-0.2L49.6,2c-0.2,0-0.3,0.2-0.3,0.3l-0.1,0.4
				C49.2,2.9,49.1,3,49,3c-0.3,0.1-0.5,0.3-0.7,0.4c-0.1,0.1-0.2,0.1-0.3,0.1l-0.4-0.1c-0.2,0-0.3,0-0.4,0.2L46.8,4
				c-0.1,0.1-0.1,0.3,0,0.5l0.2,0.3c0.1,0.1,0.1,0.2,0,0.3C47,5.4,47,5.6,46.9,5.9c0,0.1-0.1,0.2-0.2,0.3l-0.4,0.2
				C46.2,6.5,46.2,6.6,46.2,6.8z M47.6,6.5c-0.1-1.7,1.1-3.1,2.8-3.2c1.7-0.1,3.1,1.1,3.2,2.8c0.1,1.7-1.1,3.1-2.8,3.2
				C49.1,9.5,47.7,8.2,47.6,6.5z" class="color91b3fa svgShape"></path><rect width=".6" height="7.2" x="19.1" y="6.8" fill="#969696" transform="rotate(-73.268 19.418 10.366)" class="colorbdd0fb svgShape"></rect><path fill="#969696" d="M3.2,5.4L3,6.2C2.9,6.5,3,6.8,3.2,7l0.6,0.4C3.9,7.5,4,7.7,4,7.8c0,0.5,0,0.9,0.2,1.4c0,0.2,0,0.4-0.1,0.5
					l-0.5,0.5c-0.2,0.2-0.2,0.5-0.1,0.8l0.4,0.8c0.1,0.3,0.4,0.4,0.7,0.3L5.3,12c0.2,0,0.4,0,0.5,0.2c0.3,0.3,0.7,0.6,1.1,0.9
					c0.2,0.1,0.3,0.3,0.3,0.5l0,0.7c0,0.3,0.2,0.5,0.5,0.6L8.5,15c0.3,0.1,0.6,0,0.7-0.3l0.4-0.6c0.1-0.2,0.3-0.2,0.5-0.2
					c0.5,0,0.9,0,1.4-0.2c0.2,0,0.4,0,0.5,0.1l0.5,0.5c0.2,0.2,0.5,0.2,0.8,0.1l0.8-0.4c0.3-0.1,0.4-0.4,0.3-0.7l-0.1-0.7
					c0-0.2,0-0.4,0.2-0.5c0.3-0.3,0.6-0.7,0.9-1.1c0.1-0.2,0.3-0.3,0.5-0.3l0.7,0c0.3,0,0.5-0.2,0.6-0.5l0.2-0.8
					c0.1-0.3,0-0.6-0.3-0.7l-0.6-0.4c-0.2-0.1-0.2-0.3-0.2-0.5c0-0.5,0-0.9-0.2-1.4c0-0.2,0-0.4,0.1-0.5l0.5-0.5
					c0.2-0.2,0.2-0.5,0.1-0.8L16.3,4c-0.1-0.3-0.4-0.4-0.7-0.3l-0.7,0.1c-0.2,0-0.4,0-0.5-0.2c-0.3-0.3-0.7-0.6-1.1-0.9
					c-0.2-0.1-0.3-0.3-0.3-0.5l0-0.7c0-0.3-0.2-0.5-0.5-0.6l-0.8-0.2c-0.3-0.1-0.6,0-0.7,0.3l-0.4,0.6c-0.1,0.2-0.3,0.2-0.5,0.2
					c-0.5,0-0.9,0-1.4,0.2c-0.2,0-0.4,0-0.5-0.1L7.8,1.3C7.5,1.1,7.2,1.1,7,1.2L6.2,1.7C6,1.8,5.8,2.1,5.9,2.4L6,3
					c0,0.2,0,0.4-0.2,0.5C5.5,3.9,5.2,4.2,5,4.6C4.9,4.8,4.7,4.9,4.5,4.9l-0.7,0C3.5,4.9,3.3,5.1,3.2,5.4z M5.5,6
					c1-2.6,4-3.8,6.5-2.8c2.6,1,3.8,4,2.8,6.5c-1,2.6-4,3.8-6.5,2.8C5.7,11.5,4.4,8.5,5.5,6z" class="colorbdd0fb svgShape"></path><path fill="#ebef30" d="M10,9.6c-0.1-0.3,0.3-0.6,0.6-0.3c2.6,2.2,8.8,8.8,8,21c-1.1,15.3,2.3,20.6,6.4,23.8c0,0-5.5-1.3-9.2-6.8
			C6.8,33.9,11.5,15.4,10,9.6z" class="color91b3fa svgShape"></path><path fill="#ffffff" d="M12.1,14.3c0.4,1.7,0.8,3.4,1,5c0.3,1.7,0.6,3.4,0.8,5.1c0.2,1.7,0.4,3.4,0.4,5.1c0.1,1.7,0.1,3.4,0.1,5.1
			c0,1.7,0,3.4,0.2,5.2c0.2,1.7,0.6,3.5,1.3,5.1c0.2,0.4,0.4,0.8,0.6,1.2c0.2,0.4,0.4,0.8,0.6,1.1c0.5,0.8,1,1.5,1.5,2.2
			c1.1,1.4,2.4,2.5,3.9,3.5c0.2,0.1,0.4,0.1,0.5-0.1c0.1-0.1,0.1-0.4-0.1-0.5l0,0c-0.3-0.3-0.7-0.5-1-0.8c-0.2-0.1-0.3-0.3-0.5-0.4
			c-0.2-0.1-0.3-0.3-0.5-0.4c-0.6-0.6-1.2-1.2-1.7-1.8c-1.1-1.3-1.9-2.8-2.6-4.3c-0.3-0.8-0.6-1.6-0.8-2.4c-0.2-0.8-0.4-1.6-0.5-2.5
			c-0.2-1.7-0.2-3.4-0.3-5.1c0-1.7-0.1-3.4-0.2-5.2c-0.1-0.9-0.1-1.7-0.2-2.6c0-0.4-0.1-0.9-0.1-1.3c-0.1-0.4-0.1-0.9-0.2-1.3
			c-0.2-1.7-0.5-3.4-0.9-5.1c-0.4-1.7-0.8-3.4-1.2-5c0,0-0.1-0.1-0.1-0.1C12.2,14.2,12.1,14.2,12.1,14.3z" class="colorfff svgShape"></path><g fill="#000000" class="color000 svgShape"><path fill="#38af58" d="M15.5,54.1c-0.1,0.6-0.8,0.9-1.3,0.5c-2.7-2-10-8.2-10.7-19.9c-0.6-9.8-1.9-15.1-2.6-17.5
				c-0.2-0.5,0.4-0.9,0.8-0.6C6.3,20,20.6,32.5,15.5,54.1z" class="color7d97f4 svgShape"></path><path fill="#ffffff" d="M14.6,54.2C14.6,54.2,14.6,54.2,14.6,54.2c-0.2,0.1-0.3,0-0.4-0.1C14.2,54,7,40.9,5.5,27.2
				c0-0.1,0.1-0.2,0.2-0.3C5.9,27,6,27.1,6,27.2c1.4,13.5,8.6,26.6,8.7,26.7C14.8,54,14.7,54.1,14.6,54.2z" class="colorfff svgShape"></path></g><linearGradient id="SVGID_00000058570749212020741030000010341834183467432876_" x1="14.434" x2="46.336" y1="28.591" y2="28.591" gradientUnits="userSpaceOnUse"><stop offset="0" stop-color="#ff928e" class="stopColorff928e svgShape"></stop><stop offset="1" stop-color="#fe7062" class="stopColorfe7062 svgShape"></stop></linearGradient><path fill="url(#SVGID_00000058570749212020741030000010341834183467432876_)" d="M14.4,46.8l20.2-36.4l11.7,32L14.4,46.8z
		 M34.4,12.8L16.3,45.5L45,41.6L34.4,12.8z"></path><g fill="#000000" class="color000 svgShape"><circle cx="46.7" cy="41.6" r="10.7" fill="#ffffff" class="colorfff svgShape"></circle><linearGradient id="SVGID_00000163773088785782069850000010684729550967756434_" x1="54.56" x2="35.449" y1="29.976" y2="57.074" gradientUnits="userSpaceOnUse"><stop offset="0" stop-color="#e1473d" class="stopColore1473d svgShape"></stop><stop offset="1" stop-color="#e9605a" class="stopColore9605a svgShape"></stop></linearGradient><path fill="url(#SVGID_00000163773088785782069850000010684729550967756434_)" d="M32.8,40l-0.1,1.6c0,0.5,0.3,1,0.8,1.2
					l1.2,0.5c0.3,0.1,0.5,0.4,0.6,0.7c0.2,0.8,0.5,1.7,0.8,2.4c0.1,0.3,0.1,0.7,0,1l-0.6,1.1c-0.3,0.5-0.2,1.1,0.2,1.5l1.1,1.2
					c0.4,0.4,0.9,0.5,1.4,0.3l1.2-0.5c0.3-0.1,0.7-0.1,1,0.1c0.7,0.5,1.5,0.8,2.3,1.1c0.3,0.1,0.6,0.4,0.7,0.7l0.3,1.2
					c0.1,0.5,0.6,0.9,1.1,0.9l1.6,0.1c0.5,0,1-0.3,1.2-0.8l0.5-1.2c0.1-0.3,0.4-0.5,0.7-0.6c0.8-0.2,1.7-0.5,2.4-0.8
					c0.3-0.1,0.7-0.1,1,0l1.1,0.6c0.5,0.3,1.1,0.2,1.5-0.2l1.2-1.1c0.4-0.4,0.5-0.9,0.3-1.4l-0.5-1.2c-0.1-0.3-0.1-0.7,0.1-1
					c0.5-0.7,0.8-1.5,1.1-2.3c0.1-0.3,0.4-0.6,0.7-0.7l1.2-0.3c0.5-0.1,0.9-0.6,0.9-1.1l0.1-1.6c0-0.5-0.3-1-0.8-1.2L58,40
					c-0.3-0.1-0.5-0.4-0.6-0.7c-0.2-0.8-0.5-1.7-0.8-2.4c-0.1-0.3-0.1-0.7,0-1l0.6-1.1c0.3-0.5,0.2-1.1-0.2-1.5L56,32.1
					c-0.4-0.4-0.9-0.5-1.4-0.3l-1.2,0.5c-0.3,0.1-0.7,0.1-1-0.1c-0.7-0.5-1.5-0.8-2.3-1.1c-0.3-0.1-0.6-0.4-0.7-0.7l-0.3-1.2
					c-0.1-0.5-0.6-0.9-1.1-0.9L46.4,28c-0.5,0-1,0.3-1.2,0.8L44.7,30c-0.1,0.3-0.4,0.5-0.7,0.6c-0.8,0.2-1.7,0.5-2.4,0.8
					c-0.3,0.1-0.7,0.1-1,0l-1.1-0.6c-0.5-0.3-1.1-0.2-1.5,0.2L36.7,32c-0.4,0.4-0.5,0.9-0.3,1.4l0.5,1.2c0.1,0.3,0.1,0.7-0.1,1
					c-0.5,0.7-0.8,1.5-1.1,2.3c-0.1,0.3-0.4,0.6-0.7,0.7l-1.2,0.3C33.2,39,32.9,39.5,32.8,40z M37.1,40.1c0.8-5.1,5.6-8.5,10.7-7.7
					c5.1,0.8,8.5,5.6,7.7,10.7c-0.8,5.1-5.6,8.5-10.7,7.7C39.7,50,36.3,45.2,37.1,40.1z"></path><g fill="#000000" class="color000 svgShape"><defs><path id="SVGID_00000062189861966722099750000011434231528494130864_" d="M48.4,50.7c-3.9,0.8-8.1-0.9-10.4-3.8
					c-0.9-1.2-4.8-5.4-5.2-7c-1.2-5.5,6.5-9.3,12-10.5c5.5-1.2,11.7,2.6,12.8,8.1c0.5,2.5-1.7,7.5-2.8,9.5
					C53.5,49.7,51.4,50.1,48.4,50.7z" fill="#000000" class="color000 svgShape"></path></defs><clipPath id="SVGID_00000002374484263698176200000001040140663806704534_"><use overflow="visible" xlink:href="#SVGID_00000062189861966722099750000011434231528494130864_"></use></clipPath><g clip-path="url(#SVGID_00000002374484263698176200000001040140663806704534_)" fill="#000000" class="color000 svgShape"><linearGradient id="SVGID_00000000223264265505269940000006133922427370192823_" x1="-4526.743" x2="-4536.559" y1="33.444" y2="45.511" gradientTransform="matrix(-1 0 0 1 -4492.696 0)" gradientUnits="userSpaceOnUse"><stop offset="0" stop-color="#febbba" class="stopColorfebbba svgShape"></stop><stop offset="1" stop-color="#ff928e" class="stopColorff928e svgShape"></stop></linearGradient><path fill="url(#SVGID_00000000223264265505269940000006133922427370192823_)" d="M35.4,36.7c0-0.1,0.2-0.1,0.3,0
					c0.2,0.5,0.6,1.3,1.4,1.5c0,0,0.1,0,0.1,0c0-0.1,0-0.2-0.1-0.3c-0.3-0.3,0.1-0.8,0.1-0.8s0.1,0.4,0.4,0.6
					c0.3,0.2,0.5,0.6,0.3,1.1c-0.2,1.5-0.5,3.5,1.8,4.6c2.3,1.1,4.9-3.3,4.9-3.3l-0.9,5c0,0-2.1,2-5.2-0.1c-3-2.1-1.7-5.9-1.7-5.9
					S34.7,38.6,35.4,36.7z"></path><linearGradient id="SVGID_00000117652537424643111860000000512244079315608739_" x1="521.208" x2="514.771" y1="-322.795" y2="-315.146" gradientTransform="rotate(9.056 -1934.585 -3080.104)" gradientUnits="userSpaceOnUse"><stop offset="0" stop-color="#09005d" class="stopColor09005d svgShape"></stop><stop offset="1" stop-color="#1a0f91" class="stopColor1a0f91 svgShape"></stop></linearGradient><path fill="url(#SVGID_00000117652537424643111860000000512244079315608739_)" d="M44.1,33c0,0-1-2.7,2.3-2.4
					c0,0,1.5-0.5,1.8,1c0,0,1.1,0.5,0.5,1.9c0,0,2.9-1.5,4.5,0.9c1.6,2.5,0.6,4.1-0.6,4.6c0,0,1.1,0.4,0.7,1.6
					c-0.3,1.2-2.7,2.3-4.3,1.1c0,0-4.1,1.1-4.3-1.9c0,0-2.1-1-0.4-3.7C46.1,33.6,44.1,33,44.1,33z"></path><linearGradient id="SVGID_00000053511954637314317550000011489243307930732188_" x1="49.111" x2="43.656" y1="40.976" y2="53.811" gradientUnits="userSpaceOnUse"><stop offset="0" stop-color="#4f52ff" class="stopColor4f52ff svgShape"></stop><stop offset="1" stop-color="#4042e2" class="stopColor4042e2 svgShape"></stop></linearGradient><path fill="url(#SVGID_00000053511954637314317550000011489243307930732188_)" d="M44.8,39.5c0.6-0.3,2.5-0.9,4.5,0.6
					c0.3,0.2,0.5,0.7,0.5,1.1c-0.3,1.8-0.9,7.3,0.5,9.4c0,0-1.7,2.4-4.1,0.9c0,0-1.5-4.1-3-5.8c-1-1.2,0.8-5,1.3-5.9
					C44.5,39.7,44.6,39.6,44.8,39.5z"></path><linearGradient id="SVGID_00000143593738903121968440000001484436480977565069_" x1="511.886" x2="512.411" y1="-309.309" y2="-313.033" gradientTransform="rotate(9.056 -1934.585 -3080.104)" gradientUnits="userSpaceOnUse"><stop offset="0" stop-color="#febbba" class="stopColorfebbba svgShape"></stop><stop offset="1" stop-color="#ff928e" class="stopColorff928e svgShape"></stop></linearGradient><path fill="url(#SVGID_00000143593738903121968440000001484436480977565069_)" d="M46.1,35.8c0,0,1.3,2.6,1.5,3.8
					c0,0-1,0.6-2.1-0.1c0,0-0.4-2.7-0.7-3.2L46.1,35.8z"></path><linearGradient id="SVGID_00000119834393863870398820000014442710945554299537_" x1="509.482" x2="514.386" y1="-317.288" y2="-311.65" gradientTransform="rotate(9.056 -1934.585 -3080.104)" gradientUnits="userSpaceOnUse"><stop offset="0" stop-color="#febbba" class="stopColorfebbba svgShape"></stop><stop offset="1" stop-color="#ff928e" class="stopColorff928e svgShape"></stop></linearGradient><path fill="url(#SVGID_00000119834393863870398820000014442710945554299537_)" d="M44.3,32.2c0,0-2.1,3.8-0.4,4.7
					C45.5,37.7,47,35,47,35s0.3-2-0.4-2.6C45.9,31.9,44.3,32.2,44.3,32.2z"></path><linearGradient id="SVGID_00000005253705292022119660000009278405406761277600_" x1="518.125" x2="511.688" y1="-325.389" y2="-317.74" gradientTransform="rotate(9.056 -1934.585 -3080.104)" gradientUnits="userSpaceOnUse"><stop offset="0" stop-color="#09005d" class="stopColor09005d svgShape"></stop><stop offset="1" stop-color="#1a0f91" class="stopColor1a0f91 svgShape"></stop></linearGradient><path fill="url(#SVGID_00000005253705292022119660000009278405406761277600_)" d="M45.4,31.2c0,0-1.1,0.4-1.2,1
					c-0.1,0.5,1.8,0.8,2.3,0.8l0.7,2.1c0,0,1-2.1,0.3-3.2C46.8,30.7,45.4,31.2,45.4,31.2z"></path><linearGradient id="SVGID_00000096042179788137148880000000400490691920455824_" x1="510.707" x2="515.611" y1="-318.353" y2="-312.715" gradientTransform="rotate(9.056 -1934.585 -3080.104)" gradientUnits="userSpaceOnUse"><stop offset="0" stop-color="#febbba" class="stopColorfebbba svgShape"></stop><stop offset="1" stop-color="#ff928e" class="stopColorff928e svgShape"></stop></linearGradient><path fill="url(#SVGID_00000096042179788137148880000000400490691920455824_)" d="M46.5,34.8c0,0,0.8-1.3,1.3-0.6
					c0.5,0.7-0.7,1.4-1.2,1.1L46.5,34.8z"></path><linearGradient id="SVGID_00000044161351839303066430000006000245833472487814_" x1="-4546.775" x2="-4527.367" y1="50.878" y2="28.679" gradientTransform="matrix(-1 0 0 1 -4492.696 0)" gradientUnits="userSpaceOnUse"><stop offset="0" stop-color="#febbba" class="stopColorfebbba svgShape"></stop><stop offset="1" stop-color="#ff928e" class="stopColorff928e svgShape"></stop></linearGradient><path fill="url(#SVGID_00000044161351839303066430000006000245833472487814_)" d="M49.6,40.4c0,0,3.4,2.2,4.6,5.6
					c1.2,3.4-4,4.4-4,4.4s-0.8-0.7-1.6-0.3c-0.8,0.4-0.2-1.4,0.8-1.5c1-0.1,0.6,0.7,2-0.1c1.3-0.8,1.9-2.8-2-5.3
					c-0.2-0.1-0.4-0.3-0.5-0.6C47.8,41,48.2,39.9,49.6,40.4z"></path></g></g></g><g fill="#000000" class="color000 svgShape"><circle cx="18.4" cy="45.3" r="11.4" fill="#ffffff" class="colorfff svgShape"></circle><linearGradient id="SVGID_00000088827134297327015040000010071323762411758253_" x1="-1213.386" x2="-1144.479" y1="-112.852" y2="-51.804" gradientTransform="scale(-1 1) rotate(-14.436 -89.632 -4606.846)" gradientUnits="userSpaceOnUse"><stop offset="0" stop-color="#ff928e" class="stopColorff928e svgShape"></stop><stop offset="1" stop-color="#fe7062" class="stopColorfe7062 svgShape"></stop></linearGradient><path fill="url(#SVGID_00000088827134297327015040000010071323762411758253_)" d="M4.4,43.7l-0.1,1.7
				c0,0.6,0.3,1.1,0.8,1.3l1.2,0.5c0.3,0.1,0.6,0.4,0.6,0.8c0.2,0.9,0.5,1.7,0.9,2.5c0.2,0.3,0.1,0.7,0,1l-0.6,1.1
				c-0.3,0.5-0.2,1.1,0.2,1.5l1.1,1.2c0.4,0.4,1,0.6,1.5,0.3l1.2-0.5c0.3-0.1,0.7-0.1,1,0.1c0.7,0.5,1.5,0.9,2.4,1.2
				c0.3,0.1,0.6,0.4,0.7,0.7l0.3,1.3c0.1,0.5,0.6,0.9,1.2,1l1.7,0.1c0.6,0,1.1-0.3,1.3-0.8l0.5-1.2c0.1-0.3,0.4-0.6,0.8-0.6
				c0.9-0.2,1.7-0.5,2.5-0.9c0.3-0.2,0.7-0.1,1,0l1.1,0.6c0.5,0.3,1.1,0.2,1.5-0.2l1.2-1.1c0.4-0.4,0.6-1,0.3-1.5l-0.5-1.2
				c-0.1-0.3-0.1-0.7,0.1-1c0.5-0.7,0.9-1.5,1.2-2.4c0.1-0.3,0.4-0.6,0.7-0.7l1.3-0.3c0.5-0.1,0.9-0.6,1-1.2l0.1-1.7
				c0-0.6-0.3-1.1-0.8-1.3l-1.2-0.5c-0.3-0.1-0.6-0.4-0.6-0.8c-0.2-0.9-0.5-1.7-0.9-2.5c-0.2-0.3-0.1-0.7,0-1l0.6-1.1
				c0.3-0.5,0.2-1.1-0.2-1.5l-1.1-1.2c-0.4-0.4-1-0.6-1.5-0.3l-1.2,0.5c-0.3,0.1-0.7,0.1-1-0.1c-0.7-0.5-1.5-0.9-2.4-1.2
				c-0.3-0.1-0.6-0.4-0.7-0.7l-0.3-1.3c-0.1-0.5-0.6-0.9-1.2-1l-1.7-0.1c-0.6,0-1.1,0.3-1.3,0.8l-0.5,1.2c-0.1,0.3-0.4,0.6-0.8,0.6
				c-0.9,0.2-1.7,0.5-2.5,0.9c-0.3,0.2-0.7,0.1-1,0l-1.1-0.6c-0.5-0.3-1.1-0.2-1.5,0.2l-1.2,1.1c-0.4,0.4-0.6,1-0.3,1.5l0.5,1.2
				c0.1,0.3,0.1,0.7-0.1,1c-0.5,0.7-0.9,1.5-1.2,2.4c-0.1,0.3-0.4,0.6-0.7,0.7l-1.3,0.3C4.8,42.7,4.4,43.2,4.4,43.7z M8.8,43.9
				c0.9-5.3,5.8-8.8,11.1-7.9c5.3,0.9,8.8,5.8,7.9,11.1C27,52.3,22,55.8,16.8,55C11.5,54.1,8,49.1,8.8,43.9z"></path><g fill="#000000" class="color000 svgShape"><defs><path id="SVGID_00000032633496181144600370000004612371380802034855_" d="M20.5,54.9c-4,0.9-8.3-0.9-10.7-3.9
					c-1-1.2-4-5.3-4.4-7c-1.2-5.7,5.8-9.8,11.5-11.1c5.7-1.2,12.1,2.7,13.3,8.4c0.5,2.5-0.4,7.8-1.6,9.9
					C27.1,53.8,23.6,54.2,20.5,54.9z" fill="#000000" class="color000 svgShape"></path></defs><clipPath id="SVGID_00000070099430035248901590000015108623348460911764_"><use overflow="visible" xlink:href="#SVGID_00000032633496181144600370000004612371380802034855_"></use></clipPath><g clip-path="url(#SVGID_00000070099430035248901590000015108623348460911764_)" fill="#000000" class="color000 svgShape"><linearGradient id="SVGID_00000143601381555831035470000015182260795154390663_" x1="-5016.09" x2="-5010.744" y1="51.996" y2="51.996" gradientTransform="matrix(-1 0 0 1 -4989.343 0)" gradientUnits="userSpaceOnUse"><stop offset="0" stop-color="#a22b25" class="stopColora22b25 svgShape"></stop><stop offset="1" stop-color="#c0423c" class="stopColorc0423c svgShape"></stop></linearGradient><path fill="url(#SVGID_00000143601381555831035470000015182260795154390663_)" d="M24.4,50.5c0.6,0.5,1.2,0.6,2,0.2
					l0.4,0.8c0,0-0.4,1.8-2.2,2c-0.2,0-0.4,0-0.5,0C23.2,52.2,23.8,51.1,24.4,50.5z"></path><linearGradient id="SVGID_00000150062922150405751060000011583105118358494634_" x1="28.162" x2="25.951" y1="39.519" y2="44.154" gradientUnits="userSpaceOnUse"><stop offset="0" stop-color="#4f52ff" class="stopColor4f52ff svgShape"></stop><stop offset="1" stop-color="#4042e2" class="stopColor4042e2 svgShape"></stop></linearGradient><path fill="url(#SVGID_00000150062922150405751060000011583105118358494634_)" d="M21.4,51.7l0.9-5.1
					c0,0.1,0.7,2.8,2.1,3.9c-0.5,0.6-1.1,1.7-0.3,3C22.6,53.2,21.4,51.7,21.4,51.7z"></path><linearGradient id="SVGID_00000108297779593051385720000008798547315955000480_" x1="16.106" x2="29.371" y1="53.466" y2="26.722" gradientUnits="userSpaceOnUse"><stop offset="0" stop-color="#4f52ff" class="stopColor4f52ff svgShape"></stop><stop offset="1" stop-color="#4042e2" class="stopColor4042e2 svgShape"></stop></linearGradient><path fill="url(#SVGID_00000108297779593051385720000008798547315955000480_)" d="M14.7,44c0,0,3.2-1.1,7.3-0.5
					c0.4,0.1,1.5,2.4,1.4,4c-0.3,2.7-1.8,7.3-1.8,7.3c-1.7,0.5-7.3,0.1-7.3,0.1L14.7,44z"></path><linearGradient id="SVGID_00000060719658335785501510000015854588133498693282_" x1="2109.742" x2="2109.662" y1="41.021" y2="35.563" gradientTransform="translate(-2090.216)" gradientUnits="userSpaceOnUse"><stop offset="0" stop-color="#a22b25" class="stopColora22b25 svgShape"></stop><stop offset="1" stop-color="#c0423c" class="stopColorc0423c svgShape"></stop></linearGradient><path fill="url(#SVGID_00000060719658335785501510000015854588133498693282_)" d="M17.9,40.6l0.2,2.7
					c0,0.3,0.2,0.5,0.4,0.5c0.5,0.2,1.5,0.3,2.5,0c0.2-0.1,0.3-0.3,0.2-0.5l-1.3-4.2L17.9,40.6z"></path><linearGradient id="SVGID_00000085240907153051080250000015730604647416142742_" x1="13418.966" x2="13422.675" y1="900.946" y2="906.366" gradientTransform="rotate(-21.22 3288.494 37362.318)" gradientUnits="userSpaceOnUse"><stop offset="0" stop-color="#a22b25" class="stopColora22b25 svgShape"></stop><stop offset="1" stop-color="#c0423c" class="stopColorc0423c svgShape"></stop></linearGradient><path fill="url(#SVGID_00000085240907153051080250000015730604647416142742_)" d="M19.7,36.4c0,0,1.5,1.5,1.9,2.4
						c0.4,0.9,0.9,1.4-0.2,2.1c-1,0.6-2.1,0.4-3-0.3c0,0-1.3-1.1-1.4-1.8C17,38.1,19.7,36.4,19.7,36.4z"></path><linearGradient id="SVGID_00000029764428870572420700000011069961805158529691_" x1="13749.686" x2="13754.007" y1="1384.082" y2="1389.643" gradientTransform="rotate(-21.22 3288.494 37362.318)" gradientUnits="userSpaceOnUse"><stop offset="0" stop-color="#09005d" class="stopColor09005d svgShape"></stop><stop offset="1" stop-color="#1a0f91" class="stopColor1a0f91 svgShape"></stop></linearGradient><path fill="url(#SVGID_00000029764428870572420700000011069961805158529691_)" d="M18.5,39.7l0.1-0.1c0,0-1-0.9-0.6-1.3
						c0.4-0.4,2.2-1.6,2.4-2.4c0.1-0.8-0.6-1.6-1.2-1.6c0,0-0.1,0-0.1,0.1l0,0.1c0,0.1-0.1,0.1-0.1,0c0-0.1-0.1,0-0.1,0
						c0,0.3-0.3,0.7-1.1,1.3c-1.2,0.8-1.9,1.7-1.6,2.6c0,0.1,0,0.1-0.1,0.1c-0.1,0-0.3,0-0.4,0.3c-0.2,0.5,0.2,1.2,1.3,1.5
						c0.1,0,0.1,0.1,0,0.1c-0.1,0.2-0.2,0.5,0.4,0.5c0.7,0.1,1-0.1,1.1-0.2c0,0,0-0.1,0-0.1L18.2,40c0,0,0-0.1,0-0.1L18.5,39.7z"></path><linearGradient id="SVGID_00000038384532665744682840000006063621954733688709_" x1="13417.589" x2="13421.297" y1="901.889" y2="907.308" gradientTransform="rotate(-21.22 3288.494 37362.318)" gradientUnits="userSpaceOnUse"><stop offset="0" stop-color="#a22b25" class="stopColora22b25 svgShape"></stop><stop offset="1" stop-color="#c0423c" class="stopColorc0423c svgShape"></stop></linearGradient><path fill="url(#SVGID_00000038384532665744682840000006063621954733688709_)" d="M18.6,39.9c0,0-0.7-1-1.1-0.5
						c-0.4,0.5,0.8,1.2,1.2,1.1L18.6,39.9z"></path><linearGradient id="SVGID_00000120540091851419206350000010124955357844348038_" x1="12.598" x2="25.863" y1="51.725" y2="24.982" gradientUnits="userSpaceOnUse"><stop offset="0" stop-color="#4f52ff" class="stopColor4f52ff svgShape"></stop><stop offset="1" stop-color="#4042e2" class="stopColor4042e2 svgShape"></stop></linearGradient><path fill="url(#SVGID_00000120540091851419206350000010124955357844348038_)" d="M14.8,51.9c-0.2-1.2,1.1-3,1.6-3.7
						c0.1-0.2,0.2-0.4,0.2-0.7c0-1.7-0.7-2.8-1.9-3.6c0,0-4.2,4.9-3.1,8.6c0.1,0.4,0.3,0.8,0.5,1.1C12.3,52.2,13.9,51.9,14.8,51.9z"></path><path fill="#38af58" d="M14.8,51.4l-0.2,0c0.1-1.2,1.2-2.7,1.6-3.2l0.1,0.1C16,48.8,15,50.2,14.8,51.4z" class="color7d97f4 svgShape"></path><linearGradient id="SVGID_00000163059843404356001370000017682437403791041414_" x1="2104.545" x2="2107.595" y1="50.463" y2="58.49" gradientTransform="translate(-2090.216)" gradientUnits="userSpaceOnUse"><stop offset="0" stop-color="#a22b25" class="stopColora22b25 svgShape"></stop><stop offset="1" stop-color="#c0423c" class="stopColorc0423c svgShape"></stop></linearGradient><path fill="url(#SVGID_00000163059843404356001370000017682437403791041414_)" d="M14.8,52c0-0.1,0-0.1,0-0.2
						c-0.8,0.1-2.5,0.4-2.6,1.8c1.9,2.5,7,1.6,7,1.6v-1C19.2,54.3,15.2,53.5,14.8,52z"></path><linearGradient id="SVGID_00000164483976827331571470000002269196070733706667_" x1="2108.168" x2="2111.428" y1="48.845" y2="57.425" gradientTransform="translate(-2090.216)" gradientUnits="userSpaceOnUse"><stop offset="0" stop-color="#a22b25" class="stopColora22b25 svgShape"></stop><stop offset="1" stop-color="#c0423c" class="stopColorc0423c svgShape"></stop></linearGradient><path fill="url(#SVGID_00000164483976827331571470000002269196070733706667_)" d="M18.7,55.2c0,0,0.3-1.9,2.1-1.2
					c1.4,0.6,1.2,1.1,1.2,1.1L18.7,55.2z"></path><g fill="#000000" class="color000 svgShape"><path fill="#ebef30" d="M27.4,46.7l-0.9,5.6c0,0.1-0.1,0.2-0.2,0.2c-0.3,0.1-1.2,0.3-2.1,0c-0.1,0-0.2-0.1-0.2-0.3l-1-5.6
						L27.4,46.7z" class="color91b3fa svgShape"></path><path fill="#38af58" d="M27.4,46.3l-0.2-0.5c0,0-0.1-0.1-0.1-0.1c-0.4,0-2.3-0.2-3.5,0c-0.1,0-0.1,0.1-0.2,0.1l-0.2,0.4L27.4,46.3
						z" class="color7d97f4 svgShape"></path><path fill="#ebef30" d="M27.6,46.3l0,0.4c0,0.1-0.1,0.2-0.2,0.2c-0.7,0-3.4,0.2-4.5-0.1c-0.1,0-0.1-0.1-0.1-0.2l0.1-0.2
						c0-0.1,0.1-0.2,0.2-0.2l4.3,0C27.5,46.2,27.5,46.2,27.6,46.3z" class="color91b3fa svgShape"></path><path fill="#38af58" d="M27.2,48c0,0-2.5,0.4-3.9,0l0-0.1L23.2,48c0,0-0.1,0.1,0,0.1l0.4,2.2c0,0,1.8,0.4,3.3,0l0.4-2.3
						C27.3,48.1,27.3,48,27.2,48l0-0.1L27.2,48z" class="color7d97f4 svgShape"></path><path fill="#ffffff" d="M25.5,50.5C25.5,50.5,25.5,50.5,25.5,50.5l0-2.1c0,0,0,0,0,0c0,0,0,0,0,0L25.5,50.5
						C25.6,50.5,25.6,50.5,25.5,50.5L25.5,50.5z M25,50.5C25,50.5,25,50.5,25,50.5l0-2.1c0,0,0,0,0,0c0,0,0,0,0,0L25,50.5
						C25.1,50.5,25.1,50.5,25,50.5L25,50.5z M26,50.5C26,50.5,26,50.4,26,50.5l0-2.1c0,0,0-0.1,0,0c0,0,0,0,0,0L26,50.5
						C26.1,50.4,26,50.5,26,50.5L26,50.5z M24.5,50.4C24.4,50.4,24.4,50.4,24.5,50.4l0-2c0,0,0,0,0,0c0,0,0,0,0,0L24.5,50.4
						C24.5,50.4,24.5,50.4,24.5,50.4L24.5,50.4z M26.4,50.4C26.4,50.4,26.3,50.4,26.4,50.4l0-2.1c0,0,0,0,0,0c0,0,0,0,0,0L26.4,50.4
						C26.4,50.4,26.4,50.4,26.4,50.4L26.4,50.4z M23.9,50.3l-0.1-2c0,0,0,0,0-0.1c0,0,0,0,0.1,0L23.9,50.3
						C24,50.3,24,50.4,23.9,50.3C24,50.4,24,50.4,23.9,50.3C23.9,50.4,23.9,50.3,23.9,50.3z M26.7,50.4
						C26.6,50.4,26.6,50.3,26.7,50.4l0.1-2.1c0,0,0,0,0.1,0c0,0,0,0,0,0.1L26.7,50.4C26.7,50.3,26.7,50.4,26.7,50.4
						C26.7,50.4,26.7,50.4,26.7,50.4z M23.5,50.3l-0.2-2c0,0,0,0,0-0.1c0,0,0.1,0,0.1,0L23.5,50.3C23.6,50.3,23.6,50.3,23.5,50.3
						C23.6,50.3,23.6,50.3,23.5,50.3C23.6,50.3,23.6,50.3,23.5,50.3z" class="colorfff svgShape"></path></g><linearGradient id="SVGID_00000036972759394204389390000015612872094235555258_" x1="-5016.793" x2="-5015.174" y1="50.482" y2="50.482" gradientTransform="matrix(-1 0 0 1 -4989.343 0)" gradientUnits="userSpaceOnUse"><stop offset="0" stop-color="#a22b25" class="stopColora22b25 svgShape"></stop><stop offset="1" stop-color="#c0423c" class="stopColorc0423c svgShape"></stop></linearGradient><path fill="url(#SVGID_00000036972759394204389390000015612872094235555258_)" d="M27.3,49.3c0,0-0.8-0.5-1.3-0.1
					c-0.5,0.3,0.3,2.4,0.6,2.6C26.9,52.1,27.8,50.4,27.3,49.3z"></path></g></g></g><g fill="#000000" class="color000 svgShape"><circle cx="32.2" cy="14.3" r="10.7" fill="#ffffff" class="colorfff svgShape"></circle><path fill="#38af58" d="M44.5,11.5l-1.2-0.3c-0.3-0.1-0.6-0.3-0.7-0.6c-0.3-0.8-0.7-1.5-1.1-2.2c-0.2-0.3-0.2-0.6-0.1-0.9l0.5-1.1
					c0.2-0.5,0.1-1-0.3-1.4l-1.2-1c-0.4-0.3-1-0.4-1.4-0.1l-1.1,0.6c-0.3,0.2-0.6,0.2-0.9,0c-0.7-0.4-1.5-0.6-2.4-0.8
					c-0.3-0.1-0.6-0.3-0.7-0.6l-0.5-1.1C33.2,1.3,32.7,1,32.2,1l-1.6,0.1c-0.5,0-1,0.4-1.1,0.9l-0.3,1.2c-0.1,0.3-0.3,0.6-0.6,0.7
					C27.7,4.2,27,4.5,26.3,5c-0.3,0.2-0.6,0.2-0.9,0.1l-1.1-0.5c-0.5-0.2-1-0.1-1.4,0.3l-1,1.2c-0.3,0.4-0.4,1-0.1,1.4l0.6,1.1
					c0.2,0.3,0.2,0.6,0,0.9c-0.4,0.7-0.6,1.5-0.8,2.4c-0.1,0.3-0.3,0.6-0.6,0.7l-1.1,0.5c-0.5,0.2-0.8,0.7-0.8,1.2l0.1,1.6
					c0,0.5,0.4,1,0.9,1.1l1.2,0.3c0.3,0.1,0.6,0.3,0.7,0.6c0.3,0.8,0.7,1.5,1.1,2.2c0.2,0.3,0.2,0.6,0.1,0.9l-0.5,1.1
					c-0.2,0.5-0.1,1,0.3,1.4l1.2,1c0.4,0.3,1,0.4,1.4,0.1l1.1-0.6c0.3-0.2,0.6-0.2,0.9,0c0.7,0.4,1.5,0.6,2.4,0.8
					c0.3,0.1,0.6,0.3,0.7,0.6l0.5,1.1c0.2,0.5,0.7,0.8,1.2,0.8l1.6-0.1c0.5,0,1-0.4,1.1-0.9l0.3-1.2c0.1-0.3,0.3-0.6,0.6-0.7
					c0.8-0.3,1.5-0.7,2.2-1.1c0.3-0.2,0.6-0.2,0.9-0.1l1.1,0.5c0.5,0.2,1,0.1,1.4-0.3l1-1.2c0.3-0.4,0.4-1,0.1-1.4l-0.6-1.1
					c-0.2-0.3-0.2-0.6,0-0.9c0.4-0.7,0.6-1.5,0.8-2.4c0.1-0.3,0.3-0.6,0.6-0.7l1.1-0.5c0.5-0.2,0.8-0.7,0.8-1.2l-0.1-1.6
					C45.3,12.1,45,11.7,44.5,11.5z M33.7,23.2c-4.9,0.8-9.6-2.5-10.4-7.5c-0.8-4.9,2.5-9.6,7.5-10.4c4.9-0.8,9.6,2.5,10.4,7.5
					C42,17.7,38.6,22.4,33.7,23.2z" class="color7d97f4 svgShape"></path><defs><path id="SVGID_00000145024130143478721300000015101514748137997502_" d="M26.8,22.9c3.8,0.7,19.3,0.8,21.6-2.1
					c0.9-1.2-6.5-4.2-6.2-5.7c1.1-5.4-2.2-9.6-7.6-10.7c-5.4-1.1-10.9,1.2-12.1,6.5c-0.5,2.4-1.1,6.8,0,8.8
					C24,22.2,23.9,22.3,26.8,22.9z" fill="#000000" class="color000 svgShape"></path></defs><clipPath id="SVGID_00000053512482927550511750000003420681056007435160_"><use overflow="visible" xlink:href="#SVGID_00000145024130143478721300000015101514748137997502_"></use></clipPath><g clip-path="url(#SVGID_00000053512482927550511750000003420681056007435160_)" fill="#000000" class="color000 svgShape"><linearGradient id="SVGID_00000034807897339768879710000005119666921783923127_" x1="43.926" x2="31.233" y1="13.117" y2="21.389" gradientUnits="userSpaceOnUse"><stop offset="0" stop-color="#ff928e" class="stopColorff928e svgShape"></stop><stop offset="1" stop-color="#fe7062" class="stopColorfe7062 svgShape"></stop></linearGradient><path fill="url(#SVGID_00000034807897339768879710000005119666921783923127_)" d="M33.4,12.5c0,0,3.9,7.1,9.5,7.6
					l0.3,0.8c0,0-7.8,1.5-11.7-4.9L33.4,12.5z"></path><linearGradient id="SVGID_00000051369439155594202890000005404869580936142744_" x1="3146.175" x2="3150.821" y1="436.043" y2="436.043" gradientTransform="rotate(-5.158 -3016.053 34680.182)" gradientUnits="userSpaceOnUse"><stop offset="0" stop-color="#febbba" class="stopColorfebbba svgShape"></stop><stop offset="1" stop-color="#ff928e" class="stopColorff928e svgShape"></stop></linearGradient><path fill="url(#SVGID_00000051369439155594202890000005404869580936142744_)" d="M42.9,20.6c-0.2-0.4,0.1-0.8,0.5-0.8
					c0,0,0,0,0.1,0c0.7,0,1.3-0.1,1.6-0.2c0.1-0.1,0.2,0,0.3,0c0.1,0.1,0,0.3-0.6,0.6c0,0,1.4,0.5,2.5,0c1.1-0.5-0.5,2.2-3.8,0.9
					c-0.2-0.1-0.3-0.2-0.4-0.4L42.9,20.6z"></path><linearGradient id="SVGID_00000096744460833517995950000000451462083397515181_" x1="41.752" x2="29.059" y1="9.78" y2="18.052" gradientUnits="userSpaceOnUse"><stop offset="0" stop-color="#ff928e" class="stopColorff928e svgShape"></stop><stop offset="1" stop-color="#fe7062" class="stopColorfe7062 svgShape"></stop></linearGradient><path fill="url(#SVGID_00000096744460833517995950000000451462083397515181_)" d="M32.1,24.1c0,0,3.6-10,0.8-12.2
					c0,0-4.3-0.7-7.4,0.5l0.4,9.1C25.8,21.5,28.1,25.5,32.1,24.1z"></path><linearGradient id="SVGID_00000058566083414702165960000000935882807837515667_" x1="-6391.39" x2="-6387.49" y1="10.074" y2="10.074" gradientTransform="matrix(-1 0 0 1 -6359.341 0)" gradientUnits="userSpaceOnUse"><stop offset="0" stop-color="#febbba" class="stopColorfebbba svgShape"></stop><stop offset="1" stop-color="#ff928e" class="stopColorff928e svgShape"></stop></linearGradient><path fill="url(#SVGID_00000058566083414702165960000000935882807837515667_)" d="M32,9.7c0,0-0.6,1.4-0.7,2.4
					c0,0.3-0.3,0.6-0.6,0.6c-0.7,0.1-1.8,0.2-2.4-0.4c-0.1-0.1-0.2-0.4-0.1-0.5c0.3-0.8,1.7-4,2.5-4.5L32,9.7z"></path><linearGradient id="SVGID_00000003103667329033241250000013467956229961631916_" x1="-6391.466" x2="-6383.642" y1="21.314" y2="21.314" gradientTransform="matrix(-1 0 0 1 -6359.341 0)" gradientUnits="userSpaceOnUse"><stop offset="0" stop-color="#febbba" class="stopColorfebbba svgShape"></stop><stop offset="1" stop-color="#ff928e" class="stopColorff928e svgShape"></stop></linearGradient><path fill="url(#SVGID_00000003103667329033241250000013467956229961631916_)" d="M26.4,19.7
						C26.4,19.7,26.4,19.7,26.4,19.7c0,1.7,2.3,1.9,2.3,1.9s0.7-1.1,1.5-1.1c0.8,0,2,1.3,2,1.3l-1.9,0.3c0,0-3.5,2.1-6-0.4
						C24.7,20.1,25.8,19.8,26.4,19.7z"></path><linearGradient id="SVGID_00000036234399229181152940000011260327766090056832_" x1="40.035" x2="27.342" y1="7.146" y2="15.418" gradientUnits="userSpaceOnUse"><stop offset="0" stop-color="#ff928e" class="stopColorff928e svgShape"></stop><stop offset="1" stop-color="#fe7062" class="stopColorfe7062 svgShape"></stop></linearGradient><path fill="url(#SVGID_00000036234399229181152940000011260327766090056832_)" d="M25.5,12.3c2.3,0.8,2,2.6,2,2.6
						s-1.1,3.1-1.1,4.7c-0.6,0.1-1.6,0.4-2.1,2c-0.1-0.1-0.1-0.1-0.2-0.2C21.2,18.1,25.5,12.3,25.5,12.3z"></path><linearGradient id="SVGID_00000053519951216739681220000011131690040097425825_" x1="-6387.636" x2="-6377.348" y1="17.126" y2="19.988" gradientTransform="matrix(-1 0 0 1 -6359.341 0)" gradientUnits="userSpaceOnUse"><stop offset="0" stop-color="#e1473d" class="stopColore1473d svgShape"></stop><stop offset="1" stop-color="#e9605a" class="stopColore9605a svgShape"></stop></linearGradient><path fill="url(#SVGID_00000053519951216739681220000011131690040097425825_)" d="M26.4,19.8
						C26.4,19.8,26.5,19.8,26.4,19.8c0.1-1.4,0.8-3.6,1-4.4c0,0,0-0.1-0.1-0.1c0,0-0.1,0-0.1,0.1C27,16.2,26.3,18.4,26.4,19.8
						C26.3,19.8,26.3,19.8,26.4,19.8L26.4,19.8z"></path><g fill="#000000" class="color000 svgShape"><linearGradient id="SVGID_00000114048760436252702650000000593936412397177009_" x1="15222.95" x2="15217.834" y1="6.362" y2="13.13" gradientTransform="translate(-15189.39)" gradientUnits="userSpaceOnUse"><stop offset="0" stop-color="#febbba" class="stopColorfebbba svgShape"></stop><stop offset="1" stop-color="#ff928e" class="stopColorff928e svgShape"></stop></linearGradient><path fill="url(#SVGID_00000114048760436252702650000000593936412397177009_)" d="M34.6,6.3c0,0.1-1.5,4.3-1.5,4.3
						l-2.4-0.9l0.8-4.2C31.5,5.5,34.6,5.2,34.6,6.3z"></path><linearGradient id="SVGID_00000131364480789757975610000006925144491719096208_" x1="-6391.237" x2="-6394.079" y1="2.825" y2="16.767" gradientTransform="matrix(-1 0 0 1 -6359.341 0)" gradientUnits="userSpaceOnUse"><stop offset="0" stop-color="#09005d" class="stopColor09005d svgShape"></stop><stop offset="1" stop-color="#1a0f91" class="stopColor1a0f91 svgShape"></stop></linearGradient><path fill="url(#SVGID_00000131364480789757975610000006925144491719096208_)" d="M31.9,6.5l-0.6,2.2c0,0,0,0.1,0,0.1
						c0,0.2,0,0.8,0.7,0.7c0.6-0.1,1.1-0.1,1.4,0c0.1,0.1,0.2,0.2,0.2,0.4c-0.1,0.4-0.5,1.2-0.9,1.9c-0.1,0.1-0.3,0.2-0.4,0.1
						c-0.4-0.2-1.4-0.7-2-1.2c-0.1-0.1-0.1-0.2-0.1-0.3c0.1-0.6,0.4-2.2,0.4-2.7c0-0.5-0.5-0.8-0.7-0.9c-0.1,0-0.1-0.1-0.1-0.2
						c-0.1-0.3-0.1-1,0.7-1.1c0.2,0,0.3-0.2,0.3-0.4c-0.1-0.3,0-0.9,0.6-1.1c0.7-0.2,1.1,0.2,1.3,0.5c0.1,0.1,0.3,0.2,0.4,0.1
						c0.1,0,0.2,0,0.3,0.1c0.1,0.1,0.4,0.1,0.5-0.1c0.2-0.3,0.6-0.6,1.2-0.4c1.1,0.3,1,1.6,0.6,2.3c-0.4,0.7-1.5,0.2-2.1-0.2
						c-0.4-0.3-1-0.1-1.3,0C32,6.3,32,6.4,31.9,6.5z"></path><linearGradient id="SVGID_00000106148775369565752150000016459910521172621480_" x1="15215.664" x2="15219.644" y1="11.647" y2="7.563" gradientTransform="translate(-15189.39)" gradientUnits="userSpaceOnUse"><stop offset="0" stop-color="#febbba" class="stopColorfebbba svgShape"></stop><stop offset="1" stop-color="#ff928e" class="stopColorff928e svgShape"></stop></linearGradient><path fill="url(#SVGID_00000106148775369565752150000016459910521172621480_)" d="M30.5,8.5c0,0,0.5-1.2,0.1-1.6
						c-0.4-0.4-1-0.2-1,0.7C29.6,8.8,30.5,8.5,30.5,8.5z"></path></g></g></g></svg></g></svg>